<?xml version="1.0" encoding="UTF-8"?>
<svg width="43px" height="43px" viewBox="0 0 43 43" version="1.1" xmlns="http://www.w3.org/2000/svg" xmlns:xlink="http://www.w3.org/1999/xlink">
    <!-- Generator: Sketch 63.1 (92452) - https://sketch.com -->
    <title>Group 13</title>
    <desc>Created with Sketch.</desc>
    <defs>
        <polygon id="path-1" points="0 0.291820858 38.7061374 0.291820858 38.7061374 39 0 39"></polygon>
    </defs>
    <g id="-" stroke="none" stroke-width="1" fill="none" fill-rule="evenodd">
        <g id="Aunexum-Safe_Contact" transform="translate(-868.000000, -305.000000)">
            <g id="Group-13" transform="translate(868.000000, 305.000000)">
                <g id="Group-3" transform="translate(0.000000, 4.000000)">
                    <mask id="mask-2" fill="white">
                        <use xlink:href="#path-1"></use>
                    </mask>
                    <g id="Clip-2"></g>
                    <path d="M32.5523,24.50695 C31.1553,23.12645 29.4063,23.12645 28.0148,24.50695 C26.9588,25.55745 25.8973,26.60795 24.8523,27.68045 C24.5663,27.97195 24.3298,28.03795 23.9833,27.83995 C23.2958,27.46595 22.5643,27.16345 21.9043,26.75095 C18.8298,24.82045 16.2558,22.33445 13.9733,19.53495 C12.8458,18.14345 11.8338,16.65845 11.1353,14.98095 C10.9923,14.64545 11.0143,14.41995 11.2948,14.14495 C12.3508,13.12195 13.3848,12.06595 14.4298,11.01545 C15.8818,9.55795 15.8818,7.84745 14.4188,6.37345 C13.5938,5.53745 12.7633,4.71795 11.9328,3.88195 C11.0803,3.02395 10.2333,2.16045 9.3698,1.31345 C7.9673,-0.05055 6.2238,-0.05055 4.8323,1.32445 C3.7653,2.37495 2.7368,3.45295 1.6533,4.48695 C0.6468,5.43845 0.1353,6.60445 0.0308,7.96845 C-0.1397,10.19045 0.4048,12.28045 1.1693,14.32095 C2.7368,18.54495 5.1293,22.29595 8.0223,25.73895 C11.9328,30.38645 16.6023,34.06595 22.0638,36.72245 C24.5223,37.91595 27.0743,38.83445 29.8463,38.98845 C31.7493,39.09295 33.4103,38.60895 34.7358,37.12395 C35.6433,36.10645 36.6663,35.18245 37.6288,34.20895 C39.0588,32.76795 39.0643,31.01895 37.6508,29.59445 C35.9568,27.89495 34.2518,26.20095 32.5523,24.50695" id="Fill-1" fill="#B88E2D" mask="url(#mask-2)"></path>
                </g>
                <path d="M31.6975361,21 L35,20.46875 C34.4808836,17.609375 33.0505523,15.015625 30.8746814,12.9583333 C28.5773152,10.7916667 25.6669499,9.421875 22.4638912,9 L22,12.1302083 C24.4796092,12.4635417 26.7327952,13.515625 28.511045,15.1927083 C30.1954121,16.78125 31.2943925,18.7916667 31.6975361,21" id="Fill-4" fill="#B88E2D"></path>
                <path d="M35.9122534,6.71105193 C31.9714434,3.03595206 26.9854621,0.713715047 21.4797508,0 L21,3.20106525 C25.7518172,3.81890812 30.0638629,5.8322237 33.4678089,8.99600533 C36.7004154,12.0106525 38.8193146,15.8135819 39.5846314,20 L43,19.4567244 C42.1033229,14.6045273 39.6474559,10.2050599 35.9122534,6.71105193" id="Fill-6" fill="#B88E2D"></path>
            </g>
        </g>
    </g>
</svg>