<?xml version="1.0" encoding="UTF-8"?>
<svg width="39px" height="39px" viewBox="0 0 39 39" version="1.1" xmlns="http://www.w3.org/2000/svg" xmlns:xlink="http://www.w3.org/1999/xlink">
    <!-- Generator: Sketch 63.1 (92452) - https://sketch.com -->
    <title>Shape</title>
    <desc>Created with Sketch.</desc>
    <g id="-" stroke="none" stroke-width="1" fill="none" fill-rule="evenodd">
        <g id="Aunexum-Safe_Mijn-gegevens" transform="translate(-667.000000, -205.000000)" fill="#074975">
            <path d="M686.5,205 C675.736,205 667,213.736 667,224.5 C667,235.264 675.736,244 686.5,244 C697.264,244 706,235.264 706,224.5 C706,213.736 697.264,205 686.5,205 L686.5,205 Z M686.5,210.85 C689.737,210.85 692.35,213.463 692.35,216.7 C692.35,219.937 689.737,222.55 686.5,222.55 C683.263,222.55 680.65,219.937 680.65,216.7 C680.65,213.463 683.263,210.85 686.5,210.85 L686.5,210.85 Z M686.5,238.54 C681.625,238.54 677.3155,236.044 674.8,232.261 C674.8585,228.3805 682.6,226.255 686.5,226.255 C690.3805,226.255 698.1415,228.3805 698.2,232.261 C695.6845,236.044 691.375,238.54 686.5,238.54 L686.5,238.54 Z" id="Shape"></path>
        </g>
    </g>
</svg>