<?xml version="1.0" encoding="UTF-8"?>
<svg width="119px" height="154px" viewBox="0 0 119 154" version="1.1" xmlns="http://www.w3.org/2000/svg" xmlns:xlink="http://www.w3.org/1999/xlink">
    <!-- Generator: Sketch 63.1 (92452) - https://sketch.com -->
    <title>Group</title>
    <desc>Created with Sketch.</desc>
    <defs>
        <polygon id="path-1" points="0.000122260274 0.000136236188 118.835764 0.000136236188 118.835764 153.687234 0.000122260274 153.687234"></polygon>
    </defs>
    <g id="-" stroke="none" stroke-width="1" fill="none" fill-rule="evenodd">
        <g id="AunexumSafe_Onboarding_stap2_Gegevens-ingevuld" transform="translate(-900.000000, -307.000000)">
            <g id="Group" transform="translate(899.999878, 307.312766)">
                <path d="M97.9344524,125.697109 C97.6835699,125.679517 97.4310714,125.690794 97.1793808,125.690794 C83.0346151,125.690794 68.8894454,125.686734 54.7450837,125.704326 C54.0510157,125.704777 53.3246279,125.785521 52.6701517,126.024144 C51.5478463,126.433727 50.8089346,127.473924 51.0436572,128.713499 C51.2258601,129.675207 51.9041722,130.658116 52.6026841,131.310382 C53.0563735,131.733949 53.9415323,131.668091 54.6339843,131.670346 C61.731819,131.6929 68.8292497,131.683878 75.9266804,131.683427 C83.225706,131.683427 90.5247315,131.696058 97.8237571,131.675308 C99.7936496,131.669444 101.014935,130.469564 101.000122,128.683276 C100.985847,126.990363 99.7928416,125.825667 97.9344524,125.697109" id="Fill-1" fill="#454545"></path>
                <path d="M98.4175361,95.7293344 C97.9196809,95.6690095 97.4129426,95.6912345 96.910242,95.6912345 C89.9176574,95.6889666 82.9258802,95.6898738 75.9332956,95.6898738 C68.9415184,95.6898738 61.9497413,95.6880595 54.9571566,95.6903273 C52.2974872,95.6912345 51.0082319,96.6645963 51.0001223,98.665295 C50.9924847,100.691847 52.2777022,101.68562 54.9264697,101.686073 C68.9608997,101.687888 82.9957334,101.687888 97.0297596,101.683805 C97.5316526,101.683805 98.040006,101.690155 98.5330159,101.603977 C100.030216,101.343628 100.992816,100.186116 101.000122,98.7006735 C101.007352,97.1331345 99.9672266,95.9180196 98.4175361,95.7293344" id="Fill-3" fill="#454545"></path>
                <path d="M97.0809799,64.6898075 C82.9963722,64.685684 68.9117645,64.6861421 54.8271567,64.693931 C54.2259303,64.693931 53.6121867,64.7113415 53.0259001,64.8432945 C51.7980091,65.119571 50.9100998,66.4299372 51.0074105,67.8301048 C51.1091627,69.2925835 51.785492,70.2877288 53.0937349,70.5649217 C53.6812329,70.6890858 54.2949765,70.6812969 54.8966067,70.6822132 C61.888842,70.6890858 68.8806735,70.6863367 75.8729088,70.6863367 C82.9652812,70.6863367 90.0580574,70.6890858 97.1508336,70.6849622 C99.7164433,70.6840459 100.970984,69.7200562 101.000122,67.7522159 C101.028724,65.733977 99.7099828,64.6907238 97.0809799,64.6898075" id="Fill-5" fill="#454545"></path>
                <path d="M25.06806,75.4428833 C26.7855052,77.1206743 28.0844235,77.100364 29.8323654,75.3907137 C31.6132117,73.6484076 33.3723892,71.8845965 35.1395922,70.1283519 C37.4717866,67.810587 39.8300636,65.5171148 42.1221307,63.1611187 C43.2533172,61.9982538 43.2641515,60.5936564 42.3119325,59.5466798 C41.3195862,58.4554984 39.8521336,58.393771 38.552814,59.4164549 C38.1627774,59.7231007 37.8168807,60.0870934 37.4645637,60.4383423 C34.1813541,63.70432 30.901756,66.9734836 27.3099681,70.5516825 C25.7811208,68.9431855 24.4067633,67.4453996 22.967801,66.0117306 C22.4906883,65.5362304 21.8976079,65.0607302 21.2704194,64.8727602 C20.1243858,64.5290779 19.0662309,64.8552376 18.4213864,65.9424366 C17.6862556,67.1801709 17.9510953,68.3450269 18.9217729,69.3294797 C20.9498029,71.3875912 23.0011066,73.4234012 25.06806,75.4428833" id="Fill-7" fill="#454545"></path>
                <path d="M24.7035147,106.062121 C26.8803515,108.216544 27.9671663,108.225673 30.1091256,106.108559 C33.8931333,102.36888 37.6731322,98.6264228 41.4479195,94.8780117 C41.8339773,94.4942005 42.2268502,94.1000696 42.5263156,93.6515621 C43.2563377,92.5564895 43.1268499,91.4590354 42.2476965,90.5259017 C41.3625298,89.5860206 40.2368285,89.4459116 39.1107264,90.056358 C38.5542901,90.3580091 38.0772301,90.8295373 37.6206155,91.2796324 C34.261151,94.5902525 30.9157177,97.9143676 27.3197277,101.478216 C25.7534476,99.8616044 24.3651629,98.3771638 22.9111322,96.9586101 C22.4296624,96.4890664 21.8243174,96.0342084 21.1933153,95.8488518 C20.0924693,95.5253707 19.1006656,95.9060067 18.4688618,96.8966922 C17.7356326,98.0465384 17.8759444,99.2059103 18.7963895,100.159683 C20.7282821,102.16209 22.724718,104.103771 24.7035147,106.062121" id="Fill-9" fill="#454545"></path>
                <mask id="mask-2" fill="white">
                    <use xlink:href="#path-1"></use>
                </mask>
                <g id="Clip-12"></g>
                <path d="M112.72275,143.676091 C112.72275,145.817385 110.984209,147.559995 108.847914,147.559995 L9.98784932,147.559995 C7.85114726,147.559995 6.1130137,145.817385 6.1130137,143.676091 L6.1130137,32.6073691 C6.1130137,30.4656662 7.85114726,28.7234646 9.98784932,28.7234646 L20.5666233,28.7234646 L20.5666233,35.9226583 C20.5682534,36.2972418 20.5690685,36.6726423 20.5719212,37.0464089 C20.5776267,37.7547272 20.6143048,38.4716238 20.7349349,39.1676874 C20.9639692,40.4846529 21.7843356,41.2121702 23.1226781,41.3106158 C23.6284281,41.3481967 24.1382534,41.3449288 24.6460411,41.3449288 C48.2805822,41.3465628 71.9151233,41.3469712 95.5492568,41.3461543 C99.0340822,41.3461543 99.710589,40.6603028 99.7114041,37.1391357 C99.7122192,34.6481755 99.7114041,32.1572153 99.7114041,29.4215707 L99.7366712,29.4215707 L99.7366712,28.7234646 L108.847914,28.7234646 C110.984209,28.7234646 112.72275,30.4656662 112.72275,32.6073691 L112.72275,143.676091 Z M26.0520342,19.3351835 C26.5528938,19.3094487 27.0883938,19.2592047 27.6234863,19.2583877 L44.5434932,19.2522604 C46.9838082,19.2489925 47.8151781,18.51208 48.1501712,16.1069023 C49.009661,9.93097125 53.930637,5.44740626 59.9067192,5.39511979 C66.1778562,5.3399739 71.1359178,9.61357602 72.126226,15.9271675 C72.5561747,18.6701649 73.2347192,19.2522604 76.0324418,19.2538943 C81.5202979,19.2571622 87.007339,19.2547113 92.4947877,19.2547113 L94.2679692,19.2547113 L94.2679692,35.9565628 L26.0520342,35.9565628 L26.0520342,19.3351835 Z M108.847914,22.5961437 L99.7366712,22.5961437 L99.7366712,20.9299209 C99.728113,19.9389288 99.715887,18.9483453 99.7130342,17.9573532 C99.7040685,14.7682869 98.8193116,13.8598094 95.6568459,13.8557246 C90.0133116,13.8487803 84.3701849,13.8254964 78.7270582,13.8781914 C77.6377192,13.8884036 77.1686473,13.5853055 76.8458801,12.4917829 C74.6574212,5.08303491 67.7395274,-0.0271507665 60.0786986,0.000108531504 C52.3934178,0.0279951221 45.5973767,5.13287045 43.4117705,12.6171888 C43.1232363,13.6053214 42.7071438,13.8790084 41.7384349,13.8724726 C35.9938322,13.8340747 30.2484144,13.8459209 24.5034041,13.85695 C21.5398151,13.8630774 20.5792568,14.832011 20.5666233,17.7857882 L20.5666233,22.5961437 L9.98784932,22.5961437 C4.48043151,22.5961437 9.09494702e-13,27.0870614 9.09494702e-13,32.6073691 L9.09494702e-13,143.676091 C9.09494702e-13,149.196398 4.48043151,153.687316 9.98784932,153.687316 L108.847914,153.687316 C114.355332,153.687316 118.835764,149.196398 118.835764,143.676091 L118.835764,32.6073691 C118.835764,27.0870614 114.355332,22.5961437 108.847914,22.5961437 L108.847914,22.5961437 Z" id="Fill-11" fill="#454545" mask="url(#mask-2)"></path>
            </g>
        </g>
    </g>
</svg>