<?xml version="1.0" encoding="UTF-8"?>
<svg width="16px" height="20px" viewBox="0 0 16 20" version="1.1" xmlns="http://www.w3.org/2000/svg" xmlns:xlink="http://www.w3.org/1999/xlink">
    <!-- Generator: Sketch 63.1 (92452) - https://sketch.com -->
    <title>Verwijderen</title>
    <desc>Created with Sketch.</desc>
    <g id="-" stroke="none" stroke-width="1" fill="none" fill-rule="evenodd">
        <g id="AunexumSafe_Onboarding_stap3_Legitimeren_bevestigd" transform="translate(-1059.000000, -602.000000)" fill="#B7B8B6">
            <g id="Verwijderen" transform="translate(1059.000000, 602.000000)">
                <path d="M15.7321432,1.11109375 L12.1109329,1.11109375 C12.0399508,1.11109375 11.9718081,1.08364583 11.9215581,1.03479167 L10.9356307,0.07625 C10.8853807,0.0273958333 10.8172379,0 10.7462559,0 L5.25385128,0 C5.18281564,0 5.11467286,0.0273958333 5.06442292,0.07625 L4.07849545,1.03479167 C4.0282455,1.08364583 3.96010272,1.11109375 3.88906709,1.11109375 L0.267856844,1.11109375 C0.119946295,1.11109375 0,1.22765625 0,1.37151042 L0,3.07291667 C0,3.21671875 0.119946295,3.33333333 0.267856844,3.33333333 L15.7321432,3.33333333 C15.8801073,3.33333333 16,3.21671875 16,3.07291667 L16,1.37151042 C16,1.22765625 15.8801073,1.11109375 15.7321432,1.11109375 L15.7321432,1.11109375 Z M1.14289158,17.7777604 C1.14289158,19.0050521 2.16626544,20 3.4285676,20 L12.5714324,20 C13.8337881,20 14.857162,19.0050521 14.857162,17.7777604 L14.857162,4.70484375 C14.857162,4.56098958 14.7372693,4.44442708 14.5893051,4.44442708 L1.41074843,4.44442708 C1.26283788,4.44442708 1.14289158,4.56098958 1.14289158,4.70484375 L1.14289158,17.7777604 Z" id="Fill-1"></path>
            </g>
        </g>
    </g>
</svg>