<?xml version="1.0" encoding="UTF-8"?>
<svg width="17px" height="21px" viewBox="0 0 17 21" version="1.1" xmlns="http://www.w3.org/2000/svg" xmlns:xlink="http://www.w3.org/1999/xlink">
    <!-- Generator: Sketch 63.1 (92452) - https://sketch.com -->
    <title>Group 6</title>
    <desc>Created with Sketch.</desc>
    <defs>
        <polygon id="path-1" points="0 0 16.9030116 0 16.9030116 20.9999533 0 20.9999533"></polygon>
    </defs>
    <g id="-" stroke="none" stroke-width="1" fill="none" fill-rule="evenodd">
        <g id="AunexumSafe_Inlog" transform="translate(-820.000000, -752.000000)">
            <g id="Group-6" transform="translate(820.000000, 752.000000)">
                <g id="Group-3">
                    <mask id="mask-2" fill="white">
                        <use xlink:href="#path-1"></use>
                    </mask>
                    <g id="Clip-2"></g>
                    <path d="M13.6760185,8.57691333 C13.6760185,7.64395333 13.7156197,6.74403333 13.6681572,5.84831333 C13.550926,3.63416667 11.8326486,1.75144667 9.57715145,1.3125 C7.21120347,0.8519 4.88004162,1.94296667 3.81002428,3.98043333 C3.03716301,5.45202 3.35603584,7.01311333 3.27663699,8.57691333 L13.6760185,8.57691333 Z M8.42940578,19.8242333 C10.5089087,19.8242333 12.5883133,19.82554 14.6677179,19.82358 C15.4110012,19.8228333 15.6013422,19.6425133 15.601637,18.9451267 C15.6026197,16.2392067 15.6022641,13.5332867 15.6019318,10.8272733 C15.6018335,9.99222 15.4483422,9.84307333 14.5811457,9.84288667 C10.4715676,9.84223333 6.36179306,9.84382 2.25211676,9.84111276 C1.49674682,9.84074 1.28970058,10.0237667 1.28930751,10.7408467 C1.28803006,13.4623533 1.28793179,16.18386 1.28940578,18.9052733 C1.28979884,19.63514 1.48367746,19.8228333 2.24032486,19.82358 C4.30341734,19.82554 6.36641156,19.8242333 8.42940578,19.8242333 L8.42940578,19.8242333 Z M7.55100694,-4.66666667e-05 L9.41805896,-4.66666667e-05 C9.80729017,0.103646667 10.2038913,0.18718 10.5843769,0.314206667 C13.258978,1.2075 14.9750936,3.50928667 14.9907179,6.21324667 C14.9953364,7.00154 14.991504,7.78974 14.991504,8.56198 C16.5188509,8.98879333 16.8904925,9.46675333 16.8904925,10.9505667 C16.8904925,13.57538 16.8657295,16.2005667 16.9026775,18.8250067 C16.9173191,19.8652067 16.5151168,20.5867667 15.5105445,20.9999533 L1.36025549,20.9999533 C0.548972254,20.63166 0.0115560694,20.0686733 0.00890289017,19.17314 C0.000255491329,16.2803667 -0.00721271676,13.3875 0.0123421965,10.49482 C0.0191225434,9.49428667 0.641047399,8.83992667 1.66576416,8.63646 C1.7590185,8.61788667 1.85129017,8.59511333 1.98660231,8.56468667 C1.98660231,7.79562 1.98031329,7.03616667 1.98787977,6.27680667 C2.00920347,4.12939333 2.91423237,2.40524667 4.73421503,1.11902 C5.57674682,0.523646667 6.5573422,0.248593333 7.55100694,-4.66666667e-05 L7.55100694,-4.66666667e-05 Z" id="Fill-1" fill="#074975" mask="url(#mask-2)"></path>
                </g>
                <path d="M9.16638568,17 L7.75120219,17 C7.75120219,16.2592475 7.7416309,15.525135 7.75587389,14.7912123 C7.76157109,14.4976243 7.7117776,14.2745163 7.41244692,14.0518827 C6.83133293,13.6197059 6.88272163,12.8251684 7.45061813,12.3557121 C8.01031067,11.8929907 8.93188909,11.8799951 9.50582462,12.3267801 C10.096282,12.786466 10.1894881,13.5715176 9.61156457,14.0175438 C9.26585872,14.2842868 9.23019427,14.5554881 9.23463809,14.8906244 C9.24341177,15.5530235 9.23213132,16.2157073 9.22666201,16.8782961 C9.22643413,16.9059949 9.20034097,16.9334091 9.16638568,17" id="Fill-4" fill="#074975"></path>
            </g>
        </g>
    </g>
</svg>