<?xml version="1.0" encoding="UTF-8"?>
<svg width="144px" height="153px" viewBox="0 0 144 153" version="1.1" xmlns="http://www.w3.org/2000/svg" xmlns:xlink="http://www.w3.org/1999/xlink">
    <!-- Generator: Sketch 63.1 (92452) - https://sketch.com -->
    <title>Group 4</title>
    <desc>Created with Sketch.</desc>
    <defs>
        <polygon id="path-1" points="0.000131179138 0.711134435 116.495151 0.711134435 116.495151 153 0.000131179138 153"></polygon>
        <linearGradient x1="50%" y1="40.4825368%" x2="50%" y2="100%" id="linearGradient-3">
            <stop stop-color="#FD4C66" stop-opacity="0" offset="0%"></stop>
            <stop stop-color="#F92536" stop-opacity="0.596973339" offset="100%"></stop>
        </linearGradient>
    </defs>
    <g id="-" stroke="none" stroke-width="1" fill="none" fill-rule="evenodd">
        <g id="AunexumSafe_Onboarding_stap3_Legitimeren" transform="translate(-888.000000, -326.000000)">
            <g id="Group-4" transform="translate(890.000000, 303.000000)">
                <g id="paspoort" transform="translate(12.000000, 23.000000)">
                    <g id="Group-3">
                        <mask id="mask-2" fill="white">
                            <use xlink:href="#path-1"></use>
                        </mask>
                        <g id="Clip-2"></g>
                        <path d="M101.82835,147.940102 C72.5899056,147.944793 43.3507389,147.948763 14.1122944,147.936494 C7.72207222,147.934329 4.85846111,145.137027 4.85485,138.707418 C4.82596111,98.6690505 4.83896111,58.6299608 4.84546111,18.5915929 C4.84546111,17.7731873 4.92996111,16.9547816 4.98918333,15.886569 C37.5354056,15.886569 69.6584056,15.8845033 101.782128,15.8895552 C108.88735,15.8909986 111.641906,18.5706637 111.645517,25.6332014 C111.664294,63.1470693 111.664294,100.660937 111.646239,138.174805 C111.642628,145.287862 108.937183,147.938659 101.82835,147.940102 M7.35446111,5.87238538 C7.81668333,5.5187533 8.75268333,5.76990425 9.47418333,5.76990425 C40.5232389,5.76773915 71.5722944,5.76052217 102.622072,5.77495613 C108.116739,5.77712123 110.722517,7.91551274 111.154406,12.220442 C107.755628,11.7585552 104.484683,10.9372627 101.211572,10.9264373 C71.0046278,10.8268429 40.7976833,10.8679797 10.5907389,10.8665363 C9.50740556,10.8665363 8.30057222,11.1436684 7.37685,10.7561165 C6.43579444,10.3606259 5.05562778,9.18930991 5.15529444,8.55926745 C5.31273889,7.55610708 6.42929444,6.58037123 7.35446111,5.87238538 M102.845961,0.722347642 C71.5600167,0.705748585 40.2740722,0.709357075 8.98812778,0.721625943 C2.80229444,0.723791038 0.00873888889,3.54490896 0.00657222222,9.75006934 C-0.00281666667,31.3937958 0.00296111111,53.0375222 0.00296111111,74.6812486 C0.00296111111,96.2044514 -0.00570555556,117.729098 0.00729444444,139.2523 C0.01235,147.746687 5.19935,152.982607 13.6515167,152.987659 C43.3731278,153.00498 73.0947389,153.004258 102.81635,152.987659 C111.289461,152.982607 116.484406,147.76473 116.487294,139.273951 C116.498128,97.6702203 116.497406,56.0657675 116.487294,14.4613146 C116.485128,5.94672028 111.31185,0.727399528 102.845961,0.722347642" id="Fill-1" fill="#454545" mask="url(#mask-2)"></path>
                    </g>
                    <path d="M66.6071359,132.231028 C64.7194024,132.231028 62.934193,132.249883 61.1511344,132.205385 C60.9403506,132.199351 60.6772294,131.877303 60.5410086,131.637463 C59.2849094,129.417816 56.7089024,129.415554 55.4599727,131.632184 C55.3244689,131.872777 55.0627816,132.199351 54.8534317,132.204631 C53.0689392,132.249883 51.2830128,132.230274 49.3823742,132.230274 C49.3823742,131.187952 49.385242,130.337955 49.380913,129.487204 C49.3773555,128.775981 49.7272279,128.444128 50.3846725,128.444128 C55.4592558,128.443374 60.534556,128.42829 65.6091393,128.478822 C65.9439557,128.481839 66.5168,128.956238 66.561251,129.276024 C66.6895854,130.206722 66.6071359,131.170606 66.6071359,132.231028 M56.5404001,132.976944 C56.5361171,132.156361 57.2745772,131.433071 58.0746952,131.476816 C58.8360977,131.517543 59.4856559,132.250638 59.4512422,133.030493 C59.4161116,133.817137 58.7127821,134.516291 57.973605,134.501207 C57.2365788,134.484615 56.5447205,133.749258 56.5404001,132.976944 M66.6128715,136.508166 C66.6028342,137.214863 66.2336042,137.512778 65.5732918,137.512023 C60.5281035,137.505235 55.4829152,137.504481 50.4384439,137.512778 C49.7157567,137.513531 49.3759216,137.166594 49.380183,136.415398 C49.385242,135.563892 49.3816572,134.712387 49.3816572,133.773392 L55.1839464,133.773392 C56.2213753,135.670991 57.2358618,136.358832 58.6755006,135.812782 C59.3730945,135.548054 59.9158268,134.828535 60.5259526,134.310392 C60.7611127,134.109017 60.979783,133.724369 61.216377,133.716072 C62.6703548,133.659506 64.1272004,133.686658 65.5833291,133.685904 L66.6157393,133.685904 C66.6157393,134.735767 66.6243428,135.621967 66.6128715,136.508166 M65.5331425,127.002828 C60.5216509,126.999057 55.5094424,126.999057 50.4979508,127.002828 C48.7715314,127.004337 48.0194492,127.780421 48.0094119,129.591285 C47.9965068,131.835821 47.9972237,134.079603 48.0094119,136.324138 C48.0187323,138.160645 48.8152655,138.989525 50.5674952,138.994804 C53.0395442,139.003101 55.5108763,138.997067 57.9836423,138.997067 C60.4893881,138.997067 62.9951339,139.005363 65.5008796,138.99405 C67.1735277,138.985754 67.9786643,138.134248 67.9894186,136.358078 C68.0023237,134.07734 68.0051915,131.797356 67.9879847,129.517372 C67.9743626,127.785701 67.2014888,127.004337 65.5331425,127.002828" id="Fill-4" fill="#454545"></path>
                    <path d="M88.9607474,68.4136565 C88.5971969,68.437507 88.2799033,68.476535 87.961887,68.476535 C84.1138892,68.4808715 80.2658913,68.4591892 76.4178935,68.496049 C75.6192388,68.5039992 75.3662713,68.2980179 75.2925493,67.4560242 C74.9347809,63.4028908 74.4808848,59.3591529 74.0602359,55.3009603 C76.9223831,54.2023934 79.9363107,53.0445618 83.0947913,51.8318018 C86.6298321,56.6351408 88.5733457,62.172785 88.9607474,68.4136565 L88.9607474,68.4136565 Z M83.102019,88.1697912 C79.9283603,86.9512493 76.9144327,85.7948632 73.8325651,84.6117356 C74.1144433,82.9660535 74.4902808,81.2061783 74.701328,79.4260664 C74.9759785,77.1046212 75.1284818,74.7687212 75.317846,72.4371576 C75.3575981,71.9558119 75.3019452,71.5098804 76.0261552,71.5134723 C80.2080702,71.5366219 84.3907079,71.5301172 88.5726229,71.5380674 C88.6651368,71.5387901 88.7569279,71.5929957 88.9434011,71.6515377 C88.6065929,77.7789389 86.6348915,83.3071874 83.102019,88.1697912 L83.102019,88.1697912 Z M66.5073476,99.8080951 C69.7272632,96.1286189 71.5269466,92.0472986 72.9760893,87.5554611 C75.692238,88.5694672 78.3288827,89.5523954 81.1324859,90.5982022 C77.032966,95.100158 72.3270468,98.0590611 66.5073476,99.8080951 L66.5073476,99.8080951 Z M59.5890465,100.903048 L59.5890465,85.767399 C63.0460288,86.1331061 66.4198931,86.4901403 70.0481706,86.8746387 C67.8068781,92.6833109 65.8279491,98.2534785 59.5890465,100.903048 L59.5890465,100.903048 Z M59.5774823,71.6009459 L72.1875533,71.6009459 C72.5417079,73.6036621 71.5739263,81.4967204 70.7022724,83.9150129 C67.0060551,83.5138915 63.3257386,83.1142155 59.5774823,82.7065894 L59.5774823,71.6009459 Z M59.5962741,57.2913899 C63.2765906,56.8895457 66.9800356,56.4855333 70.970418,56.0497203 C71.4850263,60.0710531 72.0097532,64.1653829 72.5547176,68.4266659 L59.5962741,68.4266659 L59.5962741,57.2913899 Z M59.6063928,39.2633298 C61.3012754,39.6218095 62.6080335,40.5772735 63.769516,41.7379961 C66.5608322,44.5277777 68.1805473,48.0048864 69.4800777,51.6590666 C69.6231851,52.0609108 69.7417184,52.4707051 69.9513201,53.1247861 C66.4589224,53.502057 63.0886719,53.8655959 59.6063928,54.2421442 L59.6063928,39.2633298 Z M81.1418818,49.4012226 C78.3411696,50.4463066 75.7262079,51.4227302 73.1191966,52.39554 C72.1774346,50.1644375 71.421423,48.0207867 70.3893154,46.0202386 C69.3673265,44.0406501 68.0670733,42.2048871 66.8918583,40.3120275 C72.3429476,41.9324136 77.0344116,44.9064942 81.1418818,49.4012226 L81.1418818,49.4012226 Z M56.408883,54.2327485 C52.9547918,53.8670414 49.5794819,53.5100072 45.9504817,53.1262315 C48.1852693,47.3139456 50.1707032,41.7473918 56.408883,39.0963765 L56.408883,54.2327485 Z M56.4038236,100.952917 C55.3146176,100.350151 54.2723913,99.9432478 53.4339846,99.2790485 C49.4768493,96.1437965 47.6641561,91.7068874 46.0155305,86.8688568 C49.5556307,86.4923086 52.9280495,86.1331061 56.4038236,85.7623398 L56.4038236,100.952917 Z M34.9406111,90.6950495 C36.3442196,90.0958969 37.6242354,89.4945761 38.9440033,89.000221 C40.2543752,88.5102024 41.6052219,88.1271495 43.050028,87.6624268 C44.4717057,92.0725945 46.2750029,96.1474102 49.4725128,99.7914721 C43.6773875,98.067734 38.9974879,95.1044944 34.9406111,90.6950495 L34.9406111,90.6950495 Z M32.9038609,88.1741277 C29.3673746,83.3295924 27.3978415,77.7998984 27.0487463,71.592273 L40.4047102,71.592273 C40.9496746,76.0103908 41.4866886,80.3728576 42.0171976,84.6753368 C39.0856651,85.8013678 36.0449952,86.9678724 32.9038609,88.1741277 L32.9038609,88.1741277 Z M32.9009699,51.8267426 C36.0406586,53.0301069 39.0820513,54.1958887 42.0193659,55.3219198 C41.4888569,59.624399 40.9518429,63.9868658 40.405433,68.4208839 L27.058865,68.4208839 C27.371822,62.2378317 29.3572559,56.6972965 32.9009699,51.8267426 L32.9009699,51.8267426 Z M56.3886456,71.5901047 L56.3886456,82.7087576 C52.7076063,83.1113245 49.0294582,83.5131687 45.2436181,83.9265768 C44.277282,79.958004 43.7417136,75.844883 43.6846152,71.5901047 L56.3886456,71.5901047 Z M43.6940111,68.4172702 C43.7041298,64.2195885 44.2975194,60.1136949 45.2241034,56.075739 C48.9607955,56.4819196 52.6353299,56.8815956 56.4023781,57.2906672 L56.4023781,68.4172702 L43.6940111,68.4172702 Z M49.045359,40.4023701 C47.9272424,42.2164509 46.6190388,44.0840146 45.5825946,46.0910673 C44.562774,48.0663194 43.8190494,50.1839515 42.8917426,52.3883126 C40.3056915,51.4277894 37.6892842,50.4557023 35.0295111,49.4684376 C37.1262507,46.0585439 45.2233807,40.9502081 49.045359,40.4023701 L49.045359,40.4023701 Z M58.062568,36 C39.2909302,35.9445015 24.0499967,51.1177333 24,69.9104538 C23.9495324,88.7422024 39.1514367,103.990599 57.985955,104 C76.7792757,104.010113 91.9753979,88.8376042 92,70.0391018 C92.0238231,51.2427676 76.882631,36.0565264 58.062568,36 L58.062568,36 Z" id="Fill-6" fill="#454545"></path>
                </g>
                <g id="Group">
                    <line x1="8.5122881e-14" y1="85.5" x2="140" y2="85.5" id="Line-3" stroke="#F92536" stroke-width="3" stroke-linecap="square"></line>
                    <rect id="Rectangle" fill="url(#linearGradient-3)" x="0" y="0" width="140" height="85"></rect>
                </g>
            </g>
        </g>
    </g>
</svg>