<?xml version="1.0" encoding="UTF-8"?>
<svg width="16px" height="20px" viewBox="0 0 16 20" version="1.1" xmlns="http://www.w3.org/2000/svg" xmlns:xlink="http://www.w3.org/1999/xlink">
    <!-- Generator: Sketch 63.1 (92452) - https://sketch.com -->
    <title>Fill 1</title>
    <desc>Created with Sketch.</desc>
    <g id="-" stroke="none" stroke-width="1" fill="none" fill-rule="evenodd">
        <g id="AunexumSafe_Mijn-edelmetalen" transform="translate(-1543.000000, -369.000000)" fill="#B88E2D">
            <g id="Group" transform="translate(423.000000, 187.000000)">
                <g id="Group-Copy" transform="translate(1091.000000, 182.000000)">
                    <path d="M44.7321432,1.11109375 L41.1109329,1.11109375 C41.0399508,1.11109375 40.9718081,1.08364583 40.9215581,1.03479167 L39.9356307,0.07625 C39.8853807,0.0273958333 39.8172379,0 39.7462559,0 L34.2538513,0 C34.1828156,0 34.1146729,0.0273958333 34.0644229,0.07625 L33.0784954,1.03479167 C33.0282455,1.08364583 32.9601027,1.11109375 32.8890671,1.11109375 L29.2678568,1.11109375 C29.1199463,1.11109375 29,1.22765625 29,1.37151042 L29,3.07291667 C29,3.21671875 29.1199463,3.33333333 29.2678568,3.33333333 L44.7321432,3.33333333 C44.8801073,3.33333333 45,3.21671875 45,3.07291667 L45,1.37151042 C45,1.22765625 44.8801073,1.11109375 44.7321432,1.11109375 L44.7321432,1.11109375 Z M30.1428916,17.7777604 C30.1428916,19.0050521 31.1662654,20 32.4285676,20 L41.5714324,20 C42.8337881,20 43.857162,19.0050521 43.857162,17.7777604 L43.857162,4.70484375 C43.857162,4.56098958 43.7372693,4.44442708 43.5893051,4.44442708 L30.4107484,4.44442708 C30.2628379,4.44442708 30.1428916,4.56098958 30.1428916,4.70484375 L30.1428916,17.7777604 Z" id="Fill-1"></path>
                </g>
            </g>
        </g>
    </g>
</svg>