<?xml version="1.0" encoding="UTF-8"?>
<svg width="23px" height="41px" viewBox="0 0 23 41" version="1.1" xmlns="http://www.w3.org/2000/svg" xmlns:xlink="http://www.w3.org/1999/xlink">
    <!-- Generator: Sketch 63.1 (92452) - https://sketch.com -->
    <title>?</title>
    <desc>Created with Sketch.</desc>
    <g id="-" stroke="none" stroke-width="1" fill="none" fill-rule="evenodd">
        <g id="AunexumSafe_Mijn-portfolio" transform="translate(-1220.000000, -819.000000)" fill="#454545" fill-rule="nonzero">
            <path d="M1233.86765,849 L1233.86765,846.386364 C1233.86765,845.590909 1233.89583,844.918561 1233.95221,844.369318 C1234.00858,843.820076 1234.13072,843.318182 1234.31863,842.863636 C1234.50654,842.409091 1234.779,841.973485 1235.13603,841.556818 C1235.49306,841.140152 1235.97222,840.647727 1236.57353,840.079545 C1237.40033,839.284091 1238.20833,838.498106 1238.99755,837.721591 C1239.78676,836.945076 1240.47263,836.130682 1241.05515,835.278409 C1241.63766,834.426136 1242.10743,833.498106 1242.46446,832.494318 C1242.82149,831.49053 1243,830.363636 1243,829.113636 C1243,827.484848 1242.71814,826.035985 1242.15441,824.767045 C1241.59069,823.498106 1240.81087,822.4375 1239.81495,821.585227 C1238.81904,820.732955 1237.654,820.089015 1236.31985,819.653409 C1234.9857,819.217803 1233.5482,819 1232.00735,819 C1230.4665,819 1229.01961,819.217803 1227.66667,819.653409 C1226.31373,820.089015 1225.11111,820.714015 1224.05882,821.528409 C1223.00654,822.342803 1222.13276,823.356061 1221.4375,824.568182 C1220.74224,825.780303 1220.26307,827.162879 1220,828.715909 L1220,828.715909 L1225.07353,829.284091 C1225.37418,827.42803 1226.11642,825.931818 1227.30025,824.795455 C1228.48407,823.659091 1230.03431,823.090909 1231.95098,823.090909 C1233.83007,823.090909 1235.29575,823.668561 1236.34804,824.823864 C1237.40033,825.979167 1237.92647,827.465909 1237.92647,829.284091 C1237.92647,830.193182 1237.77614,831.007576 1237.47549,831.727273 C1237.17484,832.44697 1236.78962,833.128788 1236.31985,833.772727 C1235.85008,834.416667 1235.32394,835.032197 1234.74142,835.619318 C1234.15891,836.206439 1233.58578,836.80303 1233.02206,837.409091 C1232.27042,838.166667 1231.65033,838.810606 1231.16176,839.340909 C1230.6732,839.871212 1230.27859,840.410985 1229.97794,840.960227 C1229.67729,841.50947 1229.46119,842.125 1229.32966,842.806818 C1229.19812,843.488636 1229.13235,844.359848 1229.13235,845.420455 L1229.13235,845.420455 L1229.13235,849 L1233.86765,849 Z M1231.5,860 C1232.39444,860 1233.20139,859.659722 1233.92083,858.979167 C1234.64028,858.298611 1235,857.472222 1235,856.5 C1235,855.527778 1234.65972,854.701389 1233.97917,854.020833 C1233.29861,853.340278 1232.47222,853 1231.5,853 C1230.52778,853 1229.70139,853.340278 1229.02083,854.020833 C1228.34028,854.701389 1228,855.527778 1228,856.5 C1228,857.472222 1228.35972,858.298611 1229.07917,858.979167 C1229.79861,859.659722 1230.60556,860 1231.5,860 Z" id="?"></path>
        </g>
    </g>
</svg>