<?xml version="1.0" encoding="UTF-8"?>
<svg width="157px" height="77px" viewBox="0 0 157 77" version="1.1" xmlns="http://www.w3.org/2000/svg" xmlns:xlink="http://www.w3.org/1999/xlink">
    <!-- Generator: Sketch 63.1 (92452) - https://sketch.com -->
    <title>Nederland</title>
    <desc>Created with Sketch.</desc>
    <g id="Nederland" stroke="none" stroke-width="1" fill="none" fill-rule="evenodd">
        <path d="M154.645162,61.2789086 L145.886176,61.2789086 L145.886176,8.86574275 C145.886176,7.56359174 144.831487,6.50599105 143.531338,6.50599105 L138.870753,6.50599105 C137.836651,2.75992493 134.406537,0.00158798903 130.346143,0.00158798903 L120.09064,0.00158798903 C116.03183,0.00158798903 112.603299,2.75992493 111.569197,6.50599105 L110.726713,6.50599105 L110.726713,2.36133969 C110.726713,1.05760069 109.672024,0.00158798903 108.373458,0.00158798903 L89.3272975,0.00158798903 C88.027148,0.00158798903 86.9740427,1.05760069 86.9740427,2.36133969 L86.9740427,10.709398 L85.8860979,11.6320196 C84.9010881,10.2202974 84.3579075,8.52908907 84.3579075,6.76800924 C84.3579075,3.03623502 81.3300319,0.00158798903 77.6085321,0.00158798903 L66.6213978,0.00158798903 C62.9014816,0.00158798903 59.8720224,3.03623502 59.8720224,6.76800924 C59.8720224,8.36711419 59.4254425,9.90746355 58.6067125,11.2334344 L57.9891019,10.709398 L57.9891019,2.36133969 C57.9891019,1.05760069 56.9359966,0 55.6358471,0 L36.5896862,0 C35.2895367,0 34.2364315,1.05760069 34.2364315,2.36133969 L34.2364315,10.709398 L26.28034,17.4519994 C25.7514119,17.9014003 25.4473575,18.5604158 25.4473575,19.255955 L25.4473575,61.2789086 L16.685205,61.2789086 C15.3866391,61.2789086 14.3319502,62.3365093 14.3319502,63.6386603 C14.3319502,64.9439873 15.3866391,66 16.685205,66 L154.645162,66 C155.945311,66 157,64.9439873 157,63.6386603 C157,62.3365093 155.945311,61.2789086 154.645162,61.2789086 L154.645162,61.2789086 Z M91.6805522,9.44377075 L97.2279624,9.44377075 L97.2279624,4.72267937 L91.6805522,4.72267937 L91.6805522,9.44377075 Z M38.9445246,9.44377075 L44.4903511,9.44377075 L44.4903511,4.72267937 L38.9445246,4.72267937 L38.9445246,9.44377075 Z M35.7012771,61.2789086 L30.153867,61.2789086 L30.153867,21.6157067 L35.6996935,21.6157067 L35.6996935,61.2789086 L35.7012771,61.2789086 Z M34.2316806,16.8946153 L37.4511739,14.1648621 L40.4125375,14.1648621 L37.1946279,16.8946153 L34.2316806,16.8946153 Z M62.0700828,61.2789086 L40.4093703,61.2789086 L40.4093703,20.3516674 L48.3638782,13.607478 C48.8943898,13.1596651 49.1984443,12.4990616 49.1984443,11.8051104 L49.1984443,4.72267937 L53.2794251,4.72267937 L53.2794251,11.8051104 C53.2794251,12.4990616 53.5850632,13.1596651 54.1139913,13.607478 L62.0700828,20.3516674 L62.0700828,61.2789086 Z M62.2268608,14.3030172 C63.7455495,12.1131803 64.5816992,9.4945864 64.5816992,6.76800924 C64.5816992,5.63894904 65.4970298,4.72267937 66.6213978,4.72267937 L71.1758801,4.72267937 C70.9715936,5.36899091 70.8591567,6.05659015 70.8591567,6.76800924 C70.8591567,9.27226794 69.7664611,11.6351956 67.8582027,13.2533564 L64.4249211,16.1641403 L62.2268608,14.3030172 Z M88.4388884,61.2789086 L66.7781759,61.2789086 L66.7781759,20.3516674 L70.8987472,16.8580915 C73.8664453,14.3443049 75.5672499,10.6665223 75.5672499,6.76800924 C75.5672499,5.63894904 76.4841641,4.72267937 77.6085321,4.72267937 C78.7344838,4.72267937 79.6498144,5.63894904 79.6498144,6.76800924 C79.6498144,10.6665223 81.3522026,14.3427169 84.3199007,16.8580915 L88.4388884,20.3516674 L88.4388884,61.2789086 Z M89.3130449,14.909629 L90.1887851,14.1648621 L93.1501487,14.1648621 L90.7937267,16.1641403 L89.3130449,14.909629 Z M114.807694,61.2789086 L93.1469815,61.2789086 L93.1469815,20.3516674 L101.101489,13.607478 C101.632001,13.1596651 101.936056,12.4990616 101.936056,11.8051104 L101.936056,4.72267937 L106.017036,4.72267937 L106.017036,11.8051104 C106.017036,12.4990616 106.322674,13.1596651 106.851602,13.607478 L114.807694,20.3516674 L114.807694,61.2789086 Z M114.807694,14.1680381 L111.339573,11.2286704 L114.807694,11.2286704 L114.807694,14.1680381 Z M120.09064,4.72267937 L122.537328,4.72267937 C122.239608,5.28482749 121.995731,5.88032337 121.821533,6.50599105 L116.700116,6.50599105 C117.446,5.42933449 118.687555,4.72267937 120.09064,4.72267937 L120.09064,4.72267937 Z M141.1765,61.2789086 L119.515787,61.2789086 L119.515787,11.2286704 L123.859648,11.2286704 C125.158214,11.2286704 126.212903,10.1710697 126.212903,8.86574275 C126.212903,6.58062653 128.065735,4.72267937 130.346143,4.72267937 C132.624968,4.72267937 134.4778,6.58062653 134.4778,8.86574275 C134.4778,10.1710697 135.532489,11.2286704 136.834222,11.2286704 L141.174916,11.2286704 L141.174916,61.2789086 L141.1765,61.2789086 Z" id="Fill-1" fill="#575756"></path>
        <path d="M154.645162,70.5294118 L16.685205,70.5294118 C15.3866391,70.5294118 14.3319502,71.5440731 14.3319502,72.7948794 C14.3319502,74.0456857 15.3866391,75.0588235 16.685205,75.0588235 L154.645162,75.0588235 C155.945311,75.0588235 157,74.0456857 157,72.7948794 C157,71.5440731 155.945311,70.5294118 154.645162,70.5294118" id="Fill-3" fill="#575756"></path>
        <path d="M45.9281528,20.7058824 C44.6673198,20.7058824 43.6473029,21.7576425 43.6473029,23.0541816 L43.6473029,28.0618863 C43.6473029,29.3600046 44.6673198,30.4117647 45.9281528,30.4117647 C47.1859181,30.4117647 48.2074689,29.3600046 48.2074689,28.0618863 L48.2074689,23.0541816 C48.2074689,21.7576425 47.1859181,20.7058824 45.9281528,20.7058824" id="Fill-5" fill="#575756"></path>
        <path d="M55.6991701,20.7058824 C54.4394473,20.7058824 53.4190871,21.7576425 53.4190871,23.0541816 L53.4190871,28.0618863 C53.4190871,29.3600046 54.4394473,30.4117647 55.6991701,30.4117647 C56.958893,30.4117647 57.9792531,29.3600046 57.9792531,28.0618863 L57.9792531,23.0541816 C57.9792531,21.7576425 56.958893,20.7058824 55.6991701,20.7058824" id="Fill-7" fill="#575756"></path>
        <path d="M45.9281528,45.2941176 C44.6673198,45.2941176 43.6473029,46.3458778 43.6473029,47.6424169 L43.6473029,52.6501216 C43.6473029,53.9482399 44.6673198,55 45.9281528,55 C47.1859181,55 48.2074689,53.9482399 48.2074689,52.6501216 L48.2074689,47.6424169 C48.2074689,46.3458778 47.1859181,45.2941176 45.9281528,45.2941176" id="Fill-9" fill="#575756"></path>
        <path d="M55.6991701,45.2941176 C54.4394473,45.2941176 53.4190871,46.3458778 53.4190871,47.6424169 L53.4190871,52.6501216 C53.4190871,53.9482399 54.4394473,55 55.6991701,55 C56.958893,55 57.9792531,53.9482399 57.9792531,52.6501216 L57.9792531,47.6424169 C57.9792531,46.3458778 56.958893,45.2941176 55.6991701,45.2941176" id="Fill-11" fill="#575756"></path>
        <path d="M45.9281528,33 C44.6673198,33 43.6473029,34.0519313 43.6473029,35.3486814 L43.6473029,40.357201 C43.6473029,41.6555306 44.6673198,42.7058824 45.9281528,42.7058824 C47.1859181,42.7058824 48.2074689,41.6555306 48.2074689,40.357201 L48.2074689,35.3486814 C48.2074689,34.0519313 47.1859181,33 45.9281528,33" id="Fill-13" fill="#575756"></path>
        <path d="M55.6991701,33 C54.4394473,33 53.4190871,34.0519313 53.4190871,35.3486814 L53.4190871,40.357201 C53.4190871,41.6555306 54.4394473,42.7058824 55.6991701,42.7058824 C56.958893,42.7058824 57.9792531,41.6555306 57.9792531,40.357201 L57.9792531,35.3486814 C57.9792531,34.0519313 56.958893,33 55.6991701,33" id="Fill-15" fill="#575756"></path>
        <path d="M71.9854772,20.7058824 C70.72422,20.7058824 69.7053942,21.7576425 69.7053942,23.0541816 L69.7053942,28.0618863 C69.7053942,29.3600046 70.72422,30.4117647 71.9854772,30.4117647 C73.2452,30.4117647 74.2655602,29.3600046 74.2655602,28.0618863 L74.2655602,23.0541816 C74.2655602,21.7576425 73.2452,20.7058824 71.9854772,20.7058824" id="Fill-17" fill="#575756"></path>
        <path d="M82.4094806,20.7058824 C81.1501815,20.7058824 80.1286307,21.7576425 80.1286307,23.0541816 L80.1286307,28.0618863 C80.1286307,29.3600046 81.1501815,30.4117647 82.4094806,30.4117647 C83.6687797,30.4117647 84.6887967,29.3600046 84.6887967,28.0618863 L84.6887967,23.0541816 C84.6887967,21.7576425 83.6687797,20.7058824 82.4094806,20.7058824" id="Fill-19" fill="#575756"></path>
        <path d="M71.9854772,45.2941176 C70.72422,45.2941176 69.7053942,46.3458778 69.7053942,47.6424169 L69.7053942,52.6501216 C69.7053942,53.9482399 70.72422,55 71.9854772,55 C73.2452,55 74.2655602,53.9482399 74.2655602,52.6501216 L74.2655602,47.6424169 C74.2655602,46.3458778 73.2452,45.2941176 71.9854772,45.2941176" id="Fill-21" fill="#575756"></path>
        <path d="M82.4094806,45.2941176 C81.1501815,45.2941176 80.1286307,46.3458778 80.1286307,47.6424169 L80.1286307,52.6501216 C80.1286307,53.9482399 81.1501815,55 82.4094806,55 C83.6687797,55 84.6887967,53.9482399 84.6887967,52.6501216 L84.6887967,47.6424169 C84.6887967,46.3458778 83.6687797,45.2941176 82.4094806,45.2941176" id="Fill-23" fill="#575756"></path>
        <path d="M71.9854772,33 C70.72422,33 69.7053942,34.0519313 69.7053942,35.3486814 L69.7053942,40.357201 C69.7053942,41.6555306 70.72422,42.7058824 71.9854772,42.7058824 C73.2452,42.7058824 74.2655602,41.6555306 74.2655602,40.357201 L74.2655602,35.3486814 C74.2655602,34.0519313 73.2452,33 71.9854772,33" id="Fill-25" fill="#575756"></path>
        <path d="M82.4094806,33 C81.1501815,33 80.1286307,34.0519313 80.1286307,35.3486814 L80.1286307,40.357201 C80.1286307,41.6555306 81.1501815,42.7058824 82.4094806,42.7058824 C83.6687797,42.7058824 84.6887967,41.6555306 84.6887967,40.357201 L84.6887967,35.3486814 C84.6887967,34.0519313 83.6687797,33 82.4094806,33" id="Fill-27" fill="#575756"></path>
        <path d="M98.6957877,20.7058824 C97.4364886,20.7058824 96.4149378,21.7576425 96.4149378,23.0541816 L96.4149378,28.0618863 C96.4149378,29.3600046 97.4364886,30.4117647 98.6957877,30.4117647 C99.9535529,30.4117647 100.975104,29.3600046 100.975104,28.0618863 L100.975104,23.0541816 C100.975104,21.7576425 99.9550868,20.7058824 98.6957877,20.7058824" id="Fill-29" fill="#575756"></path>
        <path d="M108.466804,20.7058824 C107.207082,20.7058824 106.186722,21.7576425 106.186722,23.0541816 L106.186722,28.0618863 C106.186722,29.3600046 107.207082,30.4117647 108.466804,30.4117647 C109.728061,30.4117647 110.746888,29.3600046 110.746888,28.0618863 L110.746888,23.0541816 C110.748421,21.7576425 109.728061,20.7058824 108.466804,20.7058824" id="Fill-31" fill="#575756"></path>
        <path d="M98.6957877,45.2941176 C97.4364886,45.2941176 96.4149378,46.3458778 96.4149378,47.6424169 L96.4149378,52.6501216 C96.4149378,53.9482399 97.4364886,55 98.6957877,55 C99.9535529,55 100.975104,53.9482399 100.975104,52.6501216 L100.975104,47.6424169 C100.975104,46.3458778 99.9550868,45.2941176 98.6957877,45.2941176" id="Fill-33" fill="#575756"></path>
        <path d="M108.466804,45.2941176 C107.207082,45.2941176 106.186722,46.3458778 106.186722,47.6424169 L106.186722,52.6501216 C106.186722,53.9482399 107.207082,55 108.466804,55 C109.728061,55 110.746888,53.9482399 110.746888,52.6501216 L110.746888,47.6424169 C110.748421,46.3458778 109.728061,45.2941176 108.466804,45.2941176" id="Fill-35" fill="#575756"></path>
        <path d="M98.6957877,33 C97.4364886,33 96.4149378,34.0519313 96.4149378,35.3486814 L96.4149378,40.357201 C96.4149378,41.6555306 97.4364886,42.7058824 98.6957877,42.7058824 C99.9535529,42.7058824 100.975104,41.6555306 100.975104,40.357201 L100.975104,35.3486814 C100.975104,34.0519313 99.9550868,33 98.6957877,33" id="Fill-37" fill="#575756"></path>
        <path d="M108.466804,33 C107.207082,33 106.186722,34.0519313 106.186722,35.3486814 L106.186722,40.357201 C106.186722,41.6555306 107.207082,42.7058824 108.466804,42.7058824 C109.728061,42.7058824 110.746888,41.6555306 110.746888,40.357201 L110.746888,35.3486814 C110.748421,34.0519313 109.728061,33 108.466804,33" id="Fill-39" fill="#575756"></path>
        <path d="M125.403797,20.7058824 C124.144498,20.7058824 123.124481,21.7576425 123.124481,23.0541816 L123.124481,28.0618863 C123.124481,29.3600046 124.144498,30.4117647 125.403797,30.4117647 C126.663096,30.4117647 127.684647,29.3600046 127.684647,28.0618863 L127.684647,23.0541816 C127.684647,21.7576425 126.663096,20.7058824 125.403797,20.7058824" id="Fill-41" fill="#575756"></path>
        <path d="M135.828568,20.7058824 C134.569269,20.7058824 133.547718,21.7576425 133.547718,23.0541816 L133.547718,28.0618863 C133.547718,29.3600046 134.569269,30.4117647 135.828568,30.4117647 C137.087867,30.4117647 138.107884,29.3600046 138.107884,28.0618863 L138.107884,23.0541816 C138.107884,21.7576425 137.087867,20.7058824 135.828568,20.7058824" id="Fill-43" fill="#575756"></path>
        <path d="M125.403797,45.2941176 C124.144498,45.2941176 123.124481,46.3458778 123.124481,47.6424169 L123.124481,52.6501216 C123.124481,53.9482399 124.144498,55 125.403797,55 C126.663096,55 127.684647,53.9482399 127.684647,52.6501216 L127.684647,47.6424169 C127.684647,46.3458778 126.663096,45.2941176 125.403797,45.2941176" id="Fill-45" fill="#575756"></path>
        <path d="M135.828568,45.2941176 C134.569269,45.2941176 133.547718,46.3458778 133.547718,47.6424169 L133.547718,52.6501216 C133.547718,53.9482399 134.569269,55 135.828568,55 C137.087867,55 138.107884,53.9482399 138.107884,52.6501216 L138.107884,47.6424169 C138.107884,46.3458778 137.087867,45.2941176 135.828568,45.2941176" id="Fill-47" fill="#575756"></path>
        <path d="M125.403797,33 C124.144498,33 123.124481,34.0519313 123.124481,35.3486814 L123.124481,40.357201 C123.124481,41.6555306 124.144498,42.7058824 125.403797,42.7058824 C126.663096,42.7058824 127.684647,41.6555306 127.684647,40.357201 L127.684647,35.3486814 C127.684647,34.0519313 126.663096,33 125.403797,33" id="Fill-49" fill="#575756"></path>
        <path d="M135.828568,33 C134.569269,33 133.547718,34.0519313 133.547718,35.3486814 L133.547718,40.357201 C133.547718,41.6555306 134.569269,42.7058824 135.828568,42.7058824 C137.087867,42.7058824 138.107884,41.6555306 138.107884,40.357201 L138.107884,35.3486814 C138.107884,34.0519313 137.087867,33 135.828568,33" id="Fill-51" fill="#575756"></path>
        <path d="M132.896266,8.73605588 C132.896266,9.98533864 131.875058,11 130.616183,11 C129.357307,11 128.3361,9.98533864 128.3361,8.73605588 C128.3361,7.48372608 129.357307,6.47058824 130.616183,6.47058824 C131.875058,6.47058824 132.896266,7.48372608 132.896266,8.73605588" id="Fill-53" fill="#575756"></path>
        <g id="Vlag-Nederland" transform="translate(0.000000, 38.823529)">
            <g id="Group">
                <path d="M37.7842324,19.4117647 C37.7842324,29.7751186 29.3258361,38.1764706 18.8921162,38.1764706" id="Fill-55" fill="#FEFEFE"></path>
                <path d="M18.8921162,38.1764706 C8.45839628,38.1764706 2.52242671e-13,29.7751186 2.52242671e-13,19.4117647 C2.52242671e-13,9.04841084 8.45839628,0.647058824 18.8921162,0.647058824 C29.3258361,0.647058824 37.7842324,9.04841084 37.7842324,19.4117647" id="Fill-57" fill="#FEFEFE"></path>
                <path d="M18.56639,9.05941988e-14 C10.353298,9.05941988e-14 3.3505225,5.11553455 0.651452282,12.2941176 L36.4813278,12.2941176 C33.7822576,5.11553455 26.7794821,9.05941988e-14 18.56639,9.05941988e-14" id="Fill-59" fill="#D80F28"></path>
                <path d="M18.56639,38.1764706 C26.7794821,38.1764706 33.7822576,33.060936 36.4813278,25.8823529 L0.651452282,25.8823529 C3.3505225,33.060936 10.353298,38.1764706 18.56639,38.1764706" id="Fill-61" fill="#2054A1"></path>
            </g>
        </g>
    </g>
</svg>