<?xml version="1.0" encoding="UTF-8"?>
<svg width="142px" height="81px" viewBox="0 0 142 81" version="1.1" xmlns="http://www.w3.org/2000/svg" xmlns:xlink="http://www.w3.org/1999/xlink">
    <!-- Generator: Sketch 63.1 (92452) - https://sketch.com -->
    <title>Zwitserland</title>
    <desc>Created with Sketch.</desc>
    <defs>
        <polygon id="path-1" points="0.136143079 0.267454959 116.162703 0.267454959 116.162703 45.7311099 0.136143079 45.7311099"></polygon>
        <polygon id="path-3" points="0 0.899998717 37 0.899998717 37 37.8999987 0 37.8999987"></polygon>
    </defs>
    <g id="Zwitserland" stroke="none" stroke-width="1" fill="none" fill-rule="evenodd">
        <path d="M140.666358,34.543438 L108.061794,2.09184298 C106.705617,0.742028926 104.90331,9.59232693e-14 102.985394,9.59232693e-14 C101.068961,9.59232693e-14 99.2666539,0.742028926 97.9119593,2.09184298 L83.8388465,16.0989298 L77.0594449,9.35133471 C75.7032682,8.00299587 73.9009611,7.25949174 71.9845278,7.25949174 C70.0666122,7.25949174 68.2643052,8.00299587 66.9096106,9.35133471 L25.186796,50.879876 C24.5198238,51.5422438 24.5198238,52.6176694 25.186796,53.2815124 C25.5202821,53.6134339 25.9560372,53.778657 26.3932745,53.778657 C26.8290297,53.778657 27.266267,53.6134339 27.5982709,53.2815124 L57.320033,23.7006694 L60.998755,27.3636074 C62.3741999,28.7325992 64.6137442,28.7325992 65.9906712,27.3636074 L69.2632813,24.1078264 C69.2721743,24.0989752 69.297371,24.0724215 69.3462823,24.0724215 C69.3937114,24.0724215 69.4203903,24.0989752 69.4292833,24.1078264 L72.6114816,27.2736198 L71.8318652,28.0495785 C71.1663752,28.7119463 71.1663752,29.7873719 71.8318652,30.4497397 C72.4988374,31.1135826 73.5793323,31.1135826 74.2448223,30.4497397 L79.278239,25.439938 L81.8764661,28.0259752 C82.919907,29.0645207 84.2909054,29.5837934 85.6619037,29.5837934 C87.0329021,29.5837934 88.4039004,29.0645207 89.4473414,28.0259752 L92.7955416,24.6934835 C93.4610317,24.0296405 93.4610317,22.9556901 92.7955416,22.2918471 C92.1285695,21.6280041 91.0480746,21.6280041 90.3825846,22.2918471 L87.0343843,25.6243388 C86.2770003,26.3766942 85.045325,26.3766942 84.2894232,25.6243388 L81.6926783,23.0397769 L100.323434,4.49347934 C101.034871,3.78685537 101.98049,3.39592562 102.986876,3.39592562 C103.991781,3.39592562 104.937399,3.78685537 105.648836,4.49347934 L121.602811,20.3726033 L120.829123,21.1426612 C120.074703,21.8935413 118.848957,21.8964917 118.090091,21.1500372 L118.081198,21.1397107 C116.796165,19.8621818 114.707801,19.8621818 113.42425,21.1397107 L110.114586,24.4323719 C109.358684,25.1862025 108.127009,25.1862025 107.369625,24.4323719 L100.129271,17.2259876 C99.5067638,16.6064008 98.6797184,16.2656281 97.8007972,16.2656281 C96.9218761,16.2656281 96.0933485,16.6064008 95.4723233,17.2259876 C94.8053511,17.8898306 94.8053511,18.963781 95.4723233,19.627624 C96.1111344,20.2619628 97.1264143,20.2885165 97.7978329,19.7072851 L104.956668,26.8340083 C106.000108,27.8725537 107.372589,28.3918264 108.743587,28.3918264 C110.114586,28.3918264 111.485584,27.8725537 112.529025,26.8340083 L115.754206,23.6239587 C117.847016,25.6213884 121.181877,25.5948347 123.243562,23.5442975 L124.015768,22.7742397 L138.2534,36.9450744 C138.586887,37.2769959 139.022642,37.442219 139.459879,37.442219 C139.897116,37.442219 140.332871,37.2769959 140.666358,36.9450744 C141.33333,36.2827066 141.33333,35.207281 140.666358,34.543438 L140.666358,34.543438 Z M75.0244387,24.8719835 L71.8422404,21.7061901 C71.1752682,21.0408719 70.2889363,20.6764959 69.3462823,20.6764959 C68.4036283,20.6764959 67.5172964,21.0408719 66.8503242,21.7061901 L63.5777141,24.9619711 C63.5317671,25.0077025 63.4576591,25.0077025 63.4117121,24.9619711 L59.7315079,21.2990331 L69.3225677,11.7544463 C70.7899065,10.2925165 73.179149,10.2925165 74.6464878,11.7544463 L81.4258894,18.5005661 L75.0244387,24.8719835 Z" id="Fill-1" fill="#575756"></path>
        <g id="Group-5" transform="translate(25.004180, 34.869901)">
            <mask id="mask-2" fill="white">
                <use xlink:href="#path-1"></use>
            </mask>
            <g id="Clip-4"></g>
            <path d="M115.127711,29.1910934 C114.951334,29.1158579 113.433601,28.481519 110.691605,27.6642545 L110.691605,23.3743537 L114.456292,23.3743537 C115.013584,23.3743537 115.538269,23.1014405 115.856934,22.6441264 C116.175598,22.1853372 116.249706,21.6026306 116.052579,21.0804074 L110.581925,6.55847355 C110.332922,5.89758099 109.695593,5.45796942 108.984156,5.45796942 C108.274201,5.45796942 107.636872,5.89758099 107.387869,6.55847355 L103.218552,17.6239983 L98.9899484,14.8181554 C98.4163523,14.4375521 97.6693435,14.4375521 97.0972296,14.8181554 L94.2781606,16.6887174 L94.2781606,14.415424 C94.2781606,13.965486 94.0988192,13.5332504 93.7786725,13.2146058 L82.8358824,2.32463058 C82.1703924,1.6607876 81.0898975,1.6607876 80.4229253,2.32463058 L70.0655886,12.6333744 L68.6590184,8.43493636 C68.4278014,7.74011405 67.7756508,7.27247355 67.0404993,7.27247355 C66.3068299,7.27247355 65.6546793,7.74011405 65.4219801,8.43493636 L62.1775311,18.121143 L57.7177105,4.80297769 C57.4850113,4.10963058 56.8328607,3.64199008 56.0991914,3.64199008 C55.365522,3.64199008 54.7133714,4.10963058 54.4806722,4.80297769 L49.0100183,21.1394157 C48.9951967,21.1807215 48.9863037,21.2205521 48.9759286,21.2618579 L46.364362,18.6595934 C45.6973898,17.9987008 44.6168949,17.9987008 43.9514049,18.6595934 L38.4807509,24.1060562 C38.1591221,24.4232256 37.9797807,24.8554612 37.9797807,25.3068744 L37.9797807,33.3467504 C36.7036406,33.7686595 35.4111968,34.1905686 34.0980027,34.6139529 L34.0980027,27.1213785 C34.0980027,26.6714405 33.9186613,26.239205 33.5985146,25.9205603 L27.5097998,19.8604116 L44.2834088,3.16549835 C44.950381,2.50313058 44.950381,1.42770496 44.2834088,0.76533719 C43.6164366,0.101494215 42.5374239,0.101494215 41.8704517,0.76533719 L25.0968427,17.4587752 L24.4787818,16.8450893 C24.1586352,16.5279198 23.7258444,16.3479446 23.2723033,16.3479446 C22.8202444,16.3479446 22.3859714,16.5279198 22.0673069,16.8450893 L16.8115662,22.0761719 L15.7533037,19.2644281 C15.5028186,18.6020603 14.8669718,18.1624488 14.1555348,18.1624488 C13.4440978,18.1624488 12.808251,18.6020603 12.5577659,19.2644281 L7.08711195,33.786362 C6.88998462,34.3071099 6.96409264,34.8912917 7.28275712,35.350081 C7.59993944,35.807395 8.12462421,36.0803083 8.68488084,36.0803083 L12.4495682,36.0803083 L12.4495682,40.5044529 C8.95463403,41.2361554 5.34853782,41.8645934 1.62090447,42.3499364 C0.687143433,42.4709033 0.0290642247,43.3235727 0.150601376,44.2529529 C0.261763404,45.1085727 0.996914952,45.7311099 1.84026421,45.7311099 C1.91437223,45.7311099 1.98848025,45.7266843 2.06258826,45.7163579 C17.7023446,43.6864736 31.1544322,39.2062711 43.0220903,35.2541926 C50.9383089,32.6179983 58.2112699,30.1971843 65.3360148,28.6688702 L65.3360148,32.5663661 C65.3360148,33.5045975 66.0993274,34.2643289 67.0419814,34.2643289 C67.9846354,34.2643289 68.747948,33.5045975 68.747948,32.5663661 L68.747948,28.0065025 C72.4296344,27.3721636 76.0935349,27.0048372 79.8078288,27.0048372 C101.026437,27.0048372 113.661854,32.2609983 113.784873,32.3126306 C114.650455,32.6814322 115.652395,32.2831264 116.0259,31.4201306 C116.394958,30.5586099 115.993292,29.559895 115.127711,29.1910934 L115.127711,29.1910934 Z M11.1452671,32.6843826 L14.1540526,24.697614 L17.1628382,32.6843826 L11.1452671,32.6843826 Z M30.6845873,35.6893785 C25.9831746,37.1468826 21.0505449,38.5498041 15.8600192,39.7535727 L15.8600192,36.0803083 L19.6247066,36.0803083 C20.1849632,36.0803083 20.7081658,35.807395 21.0283125,35.350081 C21.3454948,34.8912917 21.4196028,34.3085851 21.2224755,33.786362 L18.1262425,25.5694612 L23.2723033,20.4475438 L30.6845873,27.8250521 L30.6845873,35.6893785 Z M48.9210886,29.7324942 C46.6118828,30.4774736 44.2878553,31.2504818 41.9386311,32.0338165 C41.7578075,32.0928248 41.5740196,32.1547835 41.3917139,32.2152669 L41.3917139,26.0105479 L45.1564013,22.2635231 L48.9210886,26.0105479 L48.9210886,29.7324942 Z M56.0977092,10.7111802 L59.201353,19.9784281 L52.9940654,19.9784281 L56.0977092,10.7111802 Z M54.3917426,28.0301058 C53.7069845,28.2336843 53.0207443,28.4431636 52.3330218,28.6555934 L52.3330218,25.3068744 C52.3330218,24.8554612 52.1536804,24.4247008 51.8335338,24.1060562 L51.0998644,23.3743537 L54.3917426,23.3743537 L54.3917426,28.0301058 Z M60.1855075,26.2996884 C60.2092221,26.3336182 60.235901,26.3631223 60.2625799,26.3941017 C59.4444273,26.603581 58.6247926,26.8219116 57.8036758,27.0490934 L57.8036758,23.3743537 L60.4182067,23.3743537 L59.949844,24.7698992 C59.7764313,25.2876967 59.8638787,25.8571264 60.1855075,26.2996884 L60.1855075,26.2996884 Z M63.9368554,23.6089116 L67.0390171,14.3416636 L70.1426609,23.6089116 L63.9368554,23.6089116 Z M90.8647452,24.0765521 C87.4928303,23.7859364 83.802251,23.6074364 79.8048645,23.6074364 C77.8113587,23.6089116 75.8237817,23.712176 73.8391689,23.9024777 L72.3940626,19.5860231 L72.3940626,15.1190975 L81.6294039,5.92708512 L90.8647452,15.1190975 L90.8647452,24.0765521 Z M101.806053,25.5502835 C99.5605801,25.1313248 97.045354,24.740395 94.2781606,24.4202752 L94.2781606,20.7691388 L98.0413658,18.271614 L101.806053,20.7691388 L101.806053,25.5502835 Z M108.984156,11.9916595 L111.992941,19.9784281 L105.97537,19.9784281 L108.984156,11.9916595 Z M107.278189,26.7363496 C106.630485,26.5740769 105.942763,26.4118041 105.219468,26.2495314 L105.219468,23.3743537 L107.278189,23.3743537 L107.278189,26.7363496 Z" id="Fill-3" fill="#575756" mask="url(#mask-2)"></path>
        </g>
        <path d="M50.0999851,63.9240955 C49.1588133,63.9240955 48.3940185,64.6838269 48.3940185,65.6220583 L48.3940185,67.4365624 C48.3940185,68.3747938 49.1588133,69.1345252 50.0999851,69.1345252 C51.0426391,69.1345252 51.8059517,68.3747938 51.8059517,67.4365624 L51.8059517,65.6220583 C51.8059517,64.6838269 51.0426391,63.9240955 50.0999851,63.9240955" id="Fill-6" fill="#575756"></path>
        <path d="M102.985691,49.4027517 C102.043037,49.4027517 101.279724,50.1639583 101.279724,51.1007145 L101.279724,52.9166938 C101.279724,53.85345 102.043037,54.6146566 102.985691,54.6146566 C103.928345,54.6146566 104.691657,53.85345 104.691657,52.9166938 L104.691657,51.1007145 C104.691657,50.1639583 103.928345,49.4027517 102.985691,49.4027517" id="Fill-8" fill="#575756"></path>
        <path d="M110.280439,49.4027517 C109.339268,49.4027517 108.574473,50.1639583 108.574473,51.1007145 L108.574473,52.9166938 C108.574473,53.85345 109.339268,54.6146566 110.280439,54.6146566 C111.223093,54.6146566 111.986406,53.85345 111.986406,52.9166938 L111.986406,51.1007145 C111.986406,50.1639583 111.223093,49.4027517 110.280439,49.4027517" id="Fill-10" fill="#575756"></path>
        <g id="Vlag-zwitserland" transform="translate(0.000000, 43.000000)">
            <g id="Group-14" stroke-width="1">
                <mask id="mask-4" fill="white">
                    <use xlink:href="#path-3"></use>
                </mask>
                <g id="Clip-13"></g>
                <path d="M37,19.3999987 C37,29.6174793 28.7174805,37.8999987 18.5,37.8999987 C8.28251946,37.8999987 0,29.6174793 0,19.3999987 C0,9.18251817 8.28251946,0.899998717 18.5,0.899998717 C28.7174805,0.899998717 37,9.18251817 37,19.3999987" id="Fill-12" fill="#D80F28" mask="url(#mask-4)"></path>
            </g>
            <polygon id="Fill-16" fill="#FEFEFE" points="27.8357488 15.9090909 21.8904992 15.9090909 21.8904992 10 15.9452496 10 15.9452496 15.9090909 10 15.9090909 10 21.8181818 15.9452496 21.8181818 15.9452496 27.7272727 21.8904992 27.7272727 21.8904992 21.8181818 27.8357488 21.8181818"></polygon>
        </g>
    </g>
</svg>