<?xml version="1.0" encoding="UTF-8"?>
<svg width="40px" height="35px" viewBox="0 0 40 35" version="1.1" xmlns="http://www.w3.org/2000/svg" xmlns:xlink="http://www.w3.org/1999/xlink">
    <!-- Generator: Sketch 63.1 (92452) - https://sketch.com -->
    <title>Bedrijfsgegevens</title>
    <desc>Created with Sketch.</desc>
    <defs>
        <polygon id="path-1" points="3.90625e-05 0.0317782556 40 0.0317782556 40 28.8752481 3.90625e-05 28.8752481"></polygon>
    </defs>
    <g id="-" stroke="none" stroke-width="1" fill="none" fill-rule="evenodd">
        <g id="Aunexum-Safe_Mijn-gegevens_bedrijfsgegevens" transform="translate(-852.000000, -206.000000)">
            <g id="Bedrijfsgegevens" transform="translate(852.000000, 206.000000)">
                <g id="Group-8">
                    <polygon id="Fill-1" fill="#074975" points="16.3636364 20.7 23.6363636 20.7 23.6363636 18 16.3636364 18"></polygon>
                    <g id="Group-7">
                        <g id="Group-4" transform="translate(0.000000, 5.960842)">
                            <mask id="mask-2" fill="white">
                                <use xlink:href="#path-1"></use>
                            </mask>
                            <g id="Clip-3"></g>
                            <path d="M35.7861328,12.5594556 C35.3066797,13.9837098 33.9666797,14.9408507 32.4514453,14.9408507 L25.8593359,14.9408507 L25.8593359,16.1020537 C25.8593359,16.7437345 25.3351172,17.2632568 24.6875391,17.2632568 L15.3125391,17.2632568 C14.6648828,17.2632568 14.1406641,16.7437345 14.1406641,16.1020537 L14.1406641,14.9408507 L7.54855469,14.9408507 C6.03332031,14.9408507 4.69332031,13.9837098 4.21355469,12.5594556 L3.90625e-05,0.0317782556 L3.90625e-05,25.3916778 C3.90625e-05,27.3124624 1.57714844,28.8752868 3.51566406,28.8752868 L36.4844141,28.8752868 C38.4228516,28.8752868 40.0000391,27.3124624 40.0000391,25.3916778 L40.0000391,0.032707218 L35.7861328,12.5594556 Z" id="Fill-2" fill="#074975" mask="url(#mask-2)"></path>
                        </g>
                        <path d="M14.140625,3.48362451 C14.140625,2.84287269 14.6658594,2.3224215 15.3125,2.3224215 L24.6875,2.3224215 C25.3341406,2.3224215 25.859375,2.84287269 25.859375,3.48362451 L25.859375,4.64482751 L14.140625,4.64482751 L14.140625,3.48362451 Z M7.54851562,18.5792636 L14.140625,18.5792636 L14.140625,17.4180606 C14.140625,16.7763798 14.6649219,16.2568576 15.3125,16.2568576 L24.6875,16.2568576 C25.3350781,16.2568576 25.859375,16.7763798 25.859375,17.4180606 L25.859375,18.5792636 L32.4514844,18.5792636 C32.95625,18.5792636 33.4035937,18.2605521 33.5638281,17.7854652 L37.9839844,4.64482751 L28.203125,4.64482751 L28.203125,3.48362451 C28.203125,1.5628399 26.6259375,1.54827068e-05 24.6875,1.54827068e-05 L15.3125,1.54827068e-05 C13.3739844,1.54827068e-05 11.796875,1.5628399 11.796875,3.48362451 L11.796875,4.64482751 L2.01632812,4.64482751 L6.43617187,17.7854652 C6.59640625,18.2605521 7.04375,18.5792636 7.54851562,18.5792636 L7.54851562,18.5792636 Z" id="Fill-5" fill="#074975"></path>
                    </g>
                </g>
            </g>
        </g>
    </g>
</svg>