<?xml version="1.0" encoding="UTF-8"?>
<svg width="28px" height="36px" viewBox="0 0 28 36" version="1.1" xmlns="http://www.w3.org/2000/svg" xmlns:xlink="http://www.w3.org/1999/xlink">
    <!-- Generator: Sketch 63.1 (92452) - https://sketch.com -->
    <title>€ copy</title>
    <desc>Created with Sketch.</desc>
    <g id="-" stroke="none" stroke-width="1" fill="none" fill-rule="evenodd">
        <g id="Aunexum-Safe_Mijn-gegevens" transform="translate(-1402.000000, -209.000000)" fill="#FFFFFF" fill-rule="nonzero">
            <path d="M1421.33919,245 C1423.11072,245 1424.75923,244.806452 1426.28471,244.419355 C1427.81019,244.032258 1429.04862,243.532258 1430,242.919355 L1430,242.919355 L1427.98243,238.274194 C1426.14528,239.33871 1423.99649,239.870968 1421.53603,239.870968 C1420.2894,239.870968 1419.14118,239.701613 1418.09139,239.362903 C1417.04159,239.024194 1416.10662,238.564516 1415.28647,237.983871 C1414.46632,237.403226 1413.77739,236.717742 1413.21968,235.927419 C1412.66198,235.137097 1412.26831,234.290323 1412.03866,233.387097 L1412.03866,233.387097 L1422.56942,233.387097 L1423.89807,229.225806 L1411.30053,229.225806 C1411.26772,229.064516 1411.24312,228.895161 1411.22671,228.717742 C1411.21031,228.540323 1411.20211,228.354839 1411.20211,228.16129 L1411.20211,228.16129 L1411.20211,227.145161 C1411.20211,226.241935 1411.25132,225.451613 1411.34974,224.774194 L1411.34974,224.774194 L1425.07909,224.774194 L1426.45694,220.612903 L1412.28471,220.612903 C1412.61277,219.548387 1413.09666,218.612903 1413.73638,217.806452 C1414.3761,217 1415.11424,216.322581 1415.95079,215.774194 C1416.78735,215.225806 1417.69772,214.806452 1418.6819,214.516129 C1419.66608,214.225806 1420.65026,214.080645 1421.63445,214.080645 C1422.84827,214.080645 1424.01289,214.193548 1425.1283,214.419355 C1426.2437,214.645161 1427.17868,214.983871 1427.93322,215.435484 L1427.93322,215.435484 L1429.80316,210.596774 C1428.9174,210.145161 1427.77739,209.766129 1426.38313,209.459677 C1424.98887,209.153226 1423.50439,209 1421.9297,209 C1419.96134,209 1418.1324,209.274194 1416.44288,209.822581 C1414.75337,210.370968 1413.24429,211.153226 1411.91564,212.169355 C1410.58699,213.185484 1409.44698,214.403226 1408.49561,215.822581 C1407.54423,217.241935 1406.8225,218.83871 1406.3304,220.612903 L1406.3304,220.612903 L1403.6239,220.612903 L1402.14763,224.774194 L1405.69069,224.774194 C1405.62507,225.129032 1405.58407,225.508065 1405.56766,225.91129 C1405.55126,226.314516 1405.54306,226.709677 1405.54306,227.096774 L1405.54306,227.096774 L1405.54306,228.693548 C1405.54306,228.887097 1405.55946,229.064516 1405.59227,229.225806 L1405.59227,229.225806 L1403.37786,229.225806 L1402,233.387097 L1406.13357,233.387097 C1406.52724,234.967742 1407.11775,236.459677 1407.9051,237.862903 C1408.69244,239.266129 1409.70943,240.5 1410.95606,241.564516 C1412.20269,242.629032 1413.68717,243.467742 1415.40949,244.080645 C1417.13181,244.693548 1419.10838,245 1421.33919,245 Z" id="€-copy"></path>
        </g>
    </g>
</svg>