<?xml version="1.0" encoding="UTF-8"?>
<svg width="37px" height="37px" viewBox="0 0 37 37" version="1.1" xmlns="http://www.w3.org/2000/svg" xmlns:xlink="http://www.w3.org/1999/xlink">
    <!-- Generator: Sketch 63.1 (92452) - https://sketch.com -->
    <title>Icoon_financiele gegevens</title>
    <desc>Created with Sketch.</desc>
    <defs>
        <polygon id="path-1" points="0 0 37 0 37 37 0 37"></polygon>
    </defs>
    <g id="-" stroke="none" stroke-width="1" fill="none" fill-rule="evenodd">
        <g id="Aunexum-Safe_Financiele-gegevens" transform="translate(-1214.000000, -207.000000)">
            <g id="Icoon_financiele-gegevens" transform="translate(1214.000000, 207.000000)">
                <g id="Group-2">
                    <mask id="mask-2" fill="white">
                        <use xlink:href="#path-1"></use>
                    </mask>
                    <g id="Clip-2"></g>
                    <path d="M2.67918307,34.3187561 L34.3065153,34.3187561 L34.3065153,2.68033039 L2.67918307,2.68033039 L2.67918307,34.3187561 Z M36.9996183,2.46608771 C36.9993873,0.827870011 36.168733,0.00356669788 34.5213955,0.00356669788 C23.8464362,0.0034512654 13.1715924,0.0034512654 2.49663309,0.00356669788 C2.36696602,0.00356669788 2.23625978,-0.00612963013 2.10786283,0.00645250979 C1.35584005,0.0805601596 0.673442597,0.330240606 0.349909997,1.05942756 C0.152811443,1.50361173 0.0156391628,2.01682452 0.0147154437,2.49933227 C-0.00375893744,13.1590597 0.000157907563,23.8187872 0.000744192966,34.4785146 C0.000744192966,36.1795276 0.816041726,36.9995599 2.51118166,36.9996753 C13.1862564,37.0001082 23.8611002,37.0001082 34.5360595,36.9996753 C36.0849055,36.9995599 36.9996183,36.0821026 37,34.5318444 C37,29.1875516 37,23.8431434 37,18.4989661 C37,13.1546733 37,7.81026507 36.9996183,2.46608771 L36.9996183,2.46608771 Z" id="Fill-1" fill="#074975" mask="url(#mask-2)"></path>
                    <path d="M7.42090032,20.9968971 C9.12686013,21.0005308 10.8329379,20.9983247 12.5388977,20.9983247 C14.5390698,20.9984544 16.539242,21.0032561 18.5392962,20.9959887 C19.4533001,20.9927444 20.0423143,20.3350468 19.9976224,19.3976851 C19.9583548,18.5750441 19.3758261,18.0093567 18.5267966,18.0053337 C16.6884117,17.9965091 14.8500269,18.0026085 13.0116421,18.0024787 C11.1879973,18.0023489 9.36435257,18.0059826 7.54070782,18 C7.04355385,17.9984557 6.60677531,18.1367954 6.29404942,18.5850367 C5.95891858,19.0650729 5.91387285,19.604416 6.14039865,20.1418125 C6.38673514,20.7260576 6.84155556,20.9954696 7.42090032,20.9968971" id="Fill-3" fill="#074975" mask="url(#mask-2)"></path>
                    <path d="M19.1174817,27.1054643 C18.8711483,27.0196992 18.5967232,27.0048176 18.3350456,27.004426 C14.7742472,26.9982906 11.2134488,26.9997265 7.65276838,27.0016846 C7.47666419,27.0018152 7.29890755,27.0083422 7.12504597,27.0365389 C6.49676004,27.1379689 6.036198,27.701904 6.00244077,28.3971629 C5.95770652,29.3196928 6.53157957,29.9864938 7.42000869,29.9928903 C9.27394202,30.0060749 11.1278753,29.9968065 12.9819267,29.9971982 C14.7475719,29.9975898 16.5132171,29.9981119 18.2789803,29.9969371 C18.4553205,29.9968065 18.6329591,29.9996784 18.808001,29.9799668 C19.4166936,29.911172 19.9124292,29.3796109 19.9874978,28.7266472 C20.0716548,27.9957508 19.7253481,27.3172011 19.1174817,27.1054643" id="Fill-4" fill="#074975" mask="url(#mask-2)"></path>
                    <path d="M7.44071778,11.9980146 C9.29343572,12.0007866 11.1461537,11.9988066 12.9988716,11.9988066 C14.8368433,11.9988066 16.674933,12.0039545 18.5129047,11.9928667 C18.7567485,11.9914147 19.0200575,11.9590751 19.2400714,11.8522885 C19.8079787,11.576808 20.0985387,10.8607173 19.9698335,10.1679902 C19.8398306,9.46958723 19.2944555,9.00363325 18.5737772,9.00297325 C14.853595,8.9992773 11.1335309,8.99874931 7.41334875,9.00297325 C6.5689199,9.00402924 5.99275471,9.63313312 6,10.5180497 C6.00738298,11.4015143 6.58236848,11.9966946 7.44071778,11.9980146" id="Fill-5" fill="#074975" mask="url(#mask-2)"></path>
                    <path d="M24.5048953,12.5619965 C25.0763605,13.1695746 25.8782407,13.1373451 26.4783808,12.5132535 C27.1646584,11.7998759 27.8498071,11.0855872 28.5375523,10.3738039 C29.2254104,9.66202064 29.9306541,8.96652298 30.6010137,8.23845412 C31.1958479,7.59249658 31.1103877,6.70578547 30.4458985,6.23088368 C29.9110107,5.84857066 29.2287972,5.94992859 28.6858939,6.46913177 C27.5925236,7.51494068 26.4906862,8.55175264 25.359045,9.62364128 C25.0957781,9.33630862 24.7382455,8.91527459 24.3454901,8.53056997 C24.1498463,8.33901486 23.9089322,8.15884828 23.6553742,8.07070104 C23.1097614,7.88085421 22.5227169,8.12194944 22.2163249,8.59662346 C21.8891605,9.10341314 21.9292375,9.71782444 22.3628602,10.2084424 C23.0655073,11.0032481 23.7783148,11.7893984 24.5048953,12.5619965" id="Fill-6" fill="#074975" mask="url(#mask-2)"></path>
                    <path d="M30.1428379,15.0839235 C29.6125885,14.8919642 29.1527003,15.0388637 28.7517663,15.4269925 C27.6456402,16.4977319 26.5351095,17.5639198 25.3935205,18.6634474 C25.2586711,18.5177995 25.0580912,18.3010345 24.8571724,18.0843833 C24.6554631,17.866708 24.4615465,17.64084 24.2501244,17.433178 C23.7082424,16.9011082 22.9480489,16.8716373 22.4266088,17.3528441 C21.8882278,17.8496399 21.8494897,18.6367073 22.3670899,19.2212332 C23.0697973,20.0149003 23.7854927,20.7971886 24.5124821,21.568212 C25.0464584,22.1344181 25.8460677,22.1459106 26.3914508,21.5900592 C27.8065785,20.1479177 29.2093958,18.693601 30.6134554,17.2404222 C30.9026925,16.9410476 31.0422853,16.5753349 30.9887522,16.1547767 C30.9220051,15.6296478 30.6352526,15.2621146 30.1428379,15.0839235" id="Fill-7" fill="#074975" mask="url(#mask-2)"></path>
                </g>
            </g>
        </g>
    </g>
</svg>