<?xml version="1.0" encoding="UTF-8"?>
<svg width="73px" height="43px" viewBox="0 0 73 43" version="1.1" xmlns="http://www.w3.org/2000/svg" xmlns:xlink="http://www.w3.org/1999/xlink">
    <!-- Generator: Sketch 63.1 (92452) - https://sketch.com -->
    <title>Fill 1</title>
    <desc>Created with Sketch.</desc>
    <g id="-" stroke="none" stroke-width="1" fill="none" fill-rule="evenodd">
        <g id="Aunexum-Safe_Contact" transform="translate(-664.000000, -305.000000)" fill="#B88E2D">
            <path d="M706.298924,305 L706.298924,335.127486 L694.701076,335.127486 L694.701076,305 L664,305 L664,348 L675.801717,348 L682.891808,348 L690.268825,348 L694.701076,348 L697.706247,348 L697.706247,342.892223 L702.176252,342.892223 L702.176252,348 L706.298924,348 L709.613674,348 L718.100641,348 L725.198283,348 L737,348 L737,305 L706.298924,305 Z M724.21,317.76 L730.79,317.76 L730.79,310.24 L724.21,310.24 L724.21,317.76 Z M712.21,317.76 L718.79,317.76 L718.79,310.24 L712.21,310.24 L712.21,317.76 Z M682.21,317.76 L688.79,317.76 L688.79,310.24 L682.21,310.24 L682.21,317.76 Z M670.21,317.76 L676.79,317.76 L676.79,310.24 L670.21,310.24 L670.21,317.76 Z M724.21,329.76 L730.79,329.76 L730.79,322.24 L724.21,322.24 L724.21,329.76 Z M712.21,329.76 L718.79,329.76 L718.79,322.24 L712.21,322.24 L712.21,329.76 Z M682.21,329.76 L688.79,329.76 L688.79,322.24 L682.21,322.24 L682.21,329.76 Z M670.21,329.76 L676.79,329.76 L676.79,322.24 L670.21,322.24 L670.21,329.76 Z M724.21,341.76 L730.79,341.76 L730.79,334.24 L724.21,334.24 L724.21,341.76 Z M712.21,341.76 L718.79,341.76 L718.79,334.24 L712.21,334.24 L712.21,341.76 Z M682.21,341.76 L688.79,341.76 L688.79,334.24 L682.21,334.24 L682.21,341.76 Z M670.21,341.76 L676.79,341.76 L676.79,334.24 L670.21,334.24 L670.21,341.76 Z" id="Fill-1"></path>
        </g>
    </g>
</svg>