<?xml version="1.0" encoding="UTF-8"?>
<svg width="12px" height="17px" viewBox="0 0 12 17" version="1.1" xmlns="http://www.w3.org/2000/svg" xmlns:xlink="http://www.w3.org/1999/xlink">
    <!-- Generator: Sketch 63.1 (92452) - https://sketch.com -->
    <title>Group 3</title>
    <desc>Created with Sketch.</desc>
    <defs>
        <polygon id="path-1" points="0 0 12 0 12 17 0 17"></polygon>
    </defs>
    <g id="Symbols" stroke="none" stroke-width="1" fill="none" fill-rule="evenodd">
        <g id="Sidemenu&gt;Portfolio" transform="translate(-18.000000, -265.000000)">
            <g id="Group-3" transform="translate(18.000000, 265.000000)">
                <mask id="mask-2" fill="white">
                    <use xlink:href="#path-1"></use>
                </mask>
                <g id="Clip-2"></g>
                <path d="M11.5992,6.75437645 C11.5617,6.93781056 11.4435,7.54992223 10.98975,7.83795673 C10.98975,7.83795673 11.2614,7.32431054 11.0178,6.8847435 C10.7742,6.44502309 10.52385,6.29594453 10.07685,6.29379731 C9.6783,6.29195683 9.49455,6.06235744 9.261,5.66956917 C9.2013,5.58291343 9.17325,5.51972375 9.17325,5.51972375 C9.2037,5.57248406 9.23265,5.62156342 9.261,5.66956917 C9.40695,5.8807638 9.74715,6.23413521 10.3722,6.17723382 C11.2539,6.09701974 11.6367,6.57094233 11.5992,6.75437645 L11.5992,6.75437645 Z M10.48095,8.93165964 C10.48095,8.93165964 9.2529,9.01969575 8.60535,9.64223678 C8.60535,9.64223678 9.44115,8.74684517 10.08765,8.78948286 L10.8102,8.23626643 L10.48095,8.93165964 Z M9.52425,9.81524153 L10.1739,9.17199514 L9.861,9.91033279 L9.52425,9.81524153 Z M9.05235,13.780854 C9.05235,13.780854 9.42615,12.7992667 9.5361,11.9830156 C9.6072,11.454799 9.564,10.9949867 9.564,10.9949867 C9.564,10.9949867 9.7137,10.7922276 9.86505,10.5870145 C10.0101,10.3905437 10.071,10.055577 10.071,10.055577 C10.071,10.055577 10.96185,11.618448 9.05235,13.780854 L9.05235,13.780854 Z M5.81505,14.9198019 C5.81505,14.9198019 8.40585,13.3018701 9.0384,11.5345529 C9.0384,11.5345529 8.9283,14.4546216 5.81505,14.9198019 L5.81505,14.9198019 Z M5.17335,15.0441874 C5.17335,15.0441874 6.81975,12.7379175 6.01365,11.925194 C4.9626,10.8656932 4.1529,9.29300644 4.71975,7.67890893 C4.71975,7.67890893 4.8717,9.61616337 5.7468,10.0753621 C6.6219,10.5344076 7.02675,11.0310293 7.02675,11.0310293 C7.02675,11.0310293 7.6743,12.0656836 6.8238,13.4802429 C5.6211,15.4802269 5.17335,15.0441874 5.17335,15.0441874 L5.17335,15.0441874 Z M4.0746,13.1983433 C4.48815,10.0092584 1.74195,8.69147751 1.74195,8.69147751 C1.74195,8.69147751 3.03,8.36080531 4.0305,9.72720542 C5.03115,11.0936055 4.0746,13.1983433 4.0746,13.1983433 L4.0746,13.1983433 Z M3.27435,13.7731853 C2.96895,10.8752024 1.65735,10.9558766 0.67215,9.16877431 C-0.3795,7.26081411 2.61435,5.00776465 2.61435,5.00776465 C2.61435,5.00776465 1.11735,6.85130819 1.5222,8.54792038 C1.8843,10.0666199 2.69595,10.0377858 3.49245,11.8305628 C3.91275,12.7764142 3.27435,13.7731853 3.27435,13.7731853 L3.27435,13.7731853 Z M3.28305,4.22663593 L3.04005,4.86804184 C2.64585,4.5177379 0.73545,6.03567054 0.73545,6.03567054 C0.99735,5.62478426 2.27265,4.3774016 3.28305,4.22663593 L3.28305,4.22663593 Z M4.38075,5.74288147 C4.28235,5.44641145 3.8931,5.56711601 3.8931,5.56711601 C4.0356,5.66481461 3.9354,6.00146836 3.9354,6.00146836 C3.9354,6.00146836 3.9042,5.83889297 3.50685,6.02447431 C3.10935,6.20990227 3.87465,7.93289463 3.87465,7.93289463 C3.51,7.75329484 2.5059,6.28950287 3.13545,5.38230153 C3.765,4.4751002 5.112,5.36359003 5.112,5.36359003 C5.112,5.36359003 4.90485,5.67938505 4.8219,5.46420272 C4.7394,5.24886702 4.33035,5.26803864 4.33035,5.26803864 L4.38075,5.74288147 Z M3.31245,2.97265824 C4.33245,2.28247971 4.99215,3.05348581 4.99215,3.05348581 C5.0451,2.70548246 4.1166,1.76239184 4.1166,1.76239184 C4.6491,1.50273134 5.91705,2.72818166 5.91705,2.72818166 C6.33945,2.12496563 6.1842,1.17451311 6.1842,1.17451311 C7.02345,1.54751626 7.7349,3.07204394 7.7349,3.07204394 L6.99045,2.77066599 C7.08645,3.05026498 6.52515,3.61912546 6.52515,3.61912546 C6.414,3.0677495 5.49105,2.93600209 5.49105,2.93600209 C5.5869,3.21560108 5.23665,3.70118001 5.23665,3.70118001 C5.23665,3.70118001 4.86075,3.3734219 4.11255,3.11314791 C3.36435,2.85302729 2.1513,4.52218572 2.1513,4.52218572 C2.1513,4.52218572 2.29245,3.66314351 3.31245,2.97265824 L3.31245,2.97265824 Z M6.6621,8.24684917 C7.4985,8.86908345 8.9142,9.81815562 8.2899,12.1474315 C8.2899,12.1474315 8.1957,9.89330839 6.939,9.41723858 C5.68245,8.94116877 5.27115,7.46694743 5.4921,6.40744671 C5.4921,6.40744671 5.8257,7.62476826 6.6621,8.24684917 L6.6621,8.24684917 Z M8.14275,6.54149471 C7.07505,6.43735444 6.69615,5.92217452 6.69615,5.92217452 L8.14275,6.54149471 Z M7.8159,6.13751022 C7.55865,6.03490367 6.96735,5.80484417 6.80865,5.74318822 L6.0756,5.82002809 C7.01295,5.5790791 8.07105,5.34978646 8.33385,5.58322017 L8.17065,5.60039795 C8.2125,5.85990507 8.08365,6.24410446 7.8159,6.13751022 L7.8159,6.13751022 Z M9.1863,5.05331644 C9.1863,5.05331644 8.6352,5.40469399 7.8237,4.95147676 C7.0122,4.49795278 7.2642,4.08614626 7.2642,4.08614626 C7.84965,4.6734115 8.0481,5.16037079 9.1863,5.05331644 L9.1863,5.05331644 Z M10.60245,0.0120990984 L6.16815,0.638474455 C6.05655,0.654425248 5.9433,0.654425248 5.8317,0.638474455 L1.39725,0.0120990984 C0.6585,-0.0925012918 0,0.494457203 0,1.25687442 L0,11.3957504 C0,11.824888 0.21405,12.224118 0.56775,12.4550977 L2.45565,14.1774766 C2.46,12.8346959 1.6152,11.7495819 1.6152,11.7495819 C1.6152,11.7495819 3.0504,12.8558614 3.10365,14.762748 C3.10365,14.7647418 3.1035,14.7665823 3.10365,14.7685761 L3.3843,15.0247091 C3.3912,14.9500164 3.3939,14.9072253 3.3939,14.9072253 C3.3939,14.9072253 3.9699,14.4199593 3.87435,15.471638 L4.2219,15.7888134 C4.32075,15.143113 4.3404,14.5001734 4.1796,14.0155147 C3.6879,12.5331646 4.99305,14.011527 4.99305,14.011527 C4.99305,14.011527 5.3475,14.8402013 4.7802,16.2983185 L5.06115,16.5544514 C5.31975,15.846635 5.8344,15.4527731 5.8344,15.4527731 C5.58015,15.8193346 5.42895,16.3167233 5.3397,16.8082837 C5.51985,16.9254607 5.72235,16.9874234 5.92725,17 C6.87525,14.1156672 8.85315,14.0225698 8.85315,14.0225698 C8.30115,14.0380605 6.93255,15.923935 6.20505,16.9854296 C6.3645,16.9578224 6.5199,16.8998474 6.6612,16.8076703 L11.43225,12.4550977 C11.7858,12.224118 12,11.824888 12,11.3957504 L12,1.25687442 C12,0.494457203 11.3412,-0.0925012918 10.60245,0.0120990984 L10.60245,0.0120990984 Z" id="Fill-1" fill="#FEFEFE" mask="url(#mask-2)"></path>
            </g>
        </g>
    </g>
</svg>