<?xml version="1.0" encoding="UTF-8"?>
<svg width="14px" height="13px" viewBox="0 0 14 13" version="1.1" xmlns="http://www.w3.org/2000/svg" xmlns:xlink="http://www.w3.org/1999/xlink">
    <!-- Generator: Sketch 63.1 (92452) - https://sketch.com -->
    <title>%</title>
    <desc>Created with Sketch.</desc>
    <g id="Symbols" stroke="none" stroke-width="1" fill="none" fill-rule="evenodd">
        <g id="Sidemenu&gt;Portfolio" transform="translate(-17.000000, -220.000000)" fill="#FFFFFF" fill-rule="nonzero">
            <path d="M21.352,232.352 L28.008,220.608 L26.68,220 L20.024,231.744 L21.352,232.352 Z M20.2,226.272 C20.616,226.272 21.0026667,226.194667 21.36,226.04 C21.7173333,225.885333 22.032,225.672 22.304,225.4 C22.576,225.128 22.7893333,224.813333 22.944,224.456 C23.0986667,224.098667 23.176,223.712 23.176,223.296 C23.176,222.88 23.0986667,222.493333 22.944,222.136 C22.7893333,221.778667 22.576,221.464 22.304,221.192 C22.032,220.92 21.7173333,220.706667 21.36,220.552 C21.0026667,220.397333 20.616,220.32 20.2,220.32 C19.784,220.32 19.3973333,220.397333 19.04,220.552 C18.6826667,220.706667 18.368,220.92 18.096,221.192 C17.824,221.464 17.6106667,221.778667 17.456,222.136 C17.3013333,222.493333 17.224,222.88 17.224,223.296 C17.224,223.712 17.3013333,224.098667 17.456,224.456 C17.6106667,224.813333 17.824,225.128 18.096,225.4 C18.368,225.672 18.6826667,225.885333 19.04,226.04 C19.3973333,226.194667 19.784,226.272 20.2,226.272 Z M20.2,224.736 C19.7946667,224.736 19.4533333,224.597333 19.176,224.32 C18.8986667,224.042667 18.76,223.701333 18.76,223.296 C18.76,222.890667 18.8986667,222.549333 19.176,222.272 C19.4533333,221.994667 19.7946667,221.856 20.2,221.856 C20.6053333,221.856 20.9466667,221.994667 21.224,222.272 C21.5013333,222.549333 21.64,222.890667 21.64,223.296 C21.64,223.701333 21.5013333,224.042667 21.224,224.32 C20.9466667,224.597333 20.6053333,224.736 20.2,224.736 Z M27.8,232.032 C28.216,232.032 28.6026667,231.954667 28.96,231.8 C29.3173333,231.645333 29.632,231.432 29.904,231.16 C30.176,230.888 30.3893333,230.573333 30.544,230.216 C30.6986667,229.858667 30.776,229.472 30.776,229.056 C30.776,228.64 30.6986667,228.253333 30.544,227.896 C30.3893333,227.538667 30.176,227.224 29.904,226.952 C29.632,226.68 29.3173333,226.466667 28.96,226.312 C28.6026667,226.157333 28.216,226.08 27.8,226.08 C27.384,226.08 26.9973333,226.157333 26.64,226.312 C26.2826667,226.466667 25.968,226.68 25.696,226.952 C25.424,227.224 25.2106667,227.538667 25.056,227.896 C24.9013333,228.253333 24.824,228.64 24.824,229.056 C24.824,229.472 24.9013333,229.858667 25.056,230.216 C25.2106667,230.573333 25.424,230.888 25.696,231.16 C25.968,231.432 26.2826667,231.645333 26.64,231.8 C26.9973333,231.954667 27.384,232.032 27.8,232.032 Z M27.8,230.496 C27.3946667,230.496 27.0533333,230.357333 26.776,230.08 C26.4986667,229.802667 26.36,229.461333 26.36,229.056 C26.36,228.650667 26.4986667,228.309333 26.776,228.032 C27.0533333,227.754667 27.3946667,227.616 27.8,227.616 C28.2053333,227.616 28.5466667,227.754667 28.824,228.032 C29.1013333,228.309333 29.24,228.650667 29.24,229.056 C29.24,229.461333 29.1013333,229.802667 28.824,230.08 C28.5466667,230.357333 28.2053333,230.496 27.8,230.496 Z" id="%"></path>
        </g>
    </g>
</svg>