<?xml version="1.0" encoding="UTF-8"?>
<svg width="17px" height="17px" viewBox="0 0 17 17" version="1.1" xmlns="http://www.w3.org/2000/svg" xmlns:xlink="http://www.w3.org/1999/xlink">
    <!-- Generator: Sketch 63.1 (92452) - https://sketch.com -->
    <title>Mijn portolio</title>
    <desc>Created with Sketch.</desc>
    <g id="Symbols" stroke="none" stroke-width="1" fill="none" fill-rule="evenodd">
        <g id="Sidemenu&gt;Portfolio" transform="translate(-14.000000, -71.000000)">
            <g id="Mijn-portolio" transform="translate(15.000000, 71.000000)">
                <path d="M12.6058115,13.5688305 C12.6058115,13.7679005 12.4471837,13.9292305 12.251448,13.9292305 L2.17273275,13.9292305 C1.97699708,13.9292305 1.81836929,13.7679005 1.81836929,13.5688305 L1.81836929,3.3184255 C1.81836929,3.1193555 1.97699708,2.9580255 2.17273275,2.9580255 L12.251448,2.9580255 C12.4471837,2.9580255 12.6058115,3.1193555 12.6058115,3.3184255 L12.6058115,13.5688305 Z" id="Path" fill="#B88E2D"></path>
                <path d="M13.9503868,1.1086805 L0.473793975,1.1086805 C0.212116618,1.1086805 0,1.3244105 0,1.5905455 L0,15.2967105 C0,15.5628455 0.212116618,15.7785755 0.473793975,15.7785755 L13.9503868,15.7785755 C14.2120641,15.7785755 14.4242643,15.5628455 14.4242643,15.2967105 L14.4242643,1.5905455 C14.4242643,1.3244105 14.2120641,1.1086805 13.9503868,1.1086805 L13.9503868,1.1086805 Z" id="Path" fill="#FFFFFF"></path>
                <path d="M3.45497687,16.3355635 L1.72235685,16.3355635 C1.50029466,16.3355635 1.32027133,16.1525585 1.32027133,15.9266285 L1.32027133,15.8155335 C1.32027133,15.5896885 1.50029466,15.4065985 1.72235685,15.4065985 L3.45497687,15.4065985 C3.67703907,15.4065985 3.85706239,15.5896885 3.85706239,15.8155335 L3.85706239,15.9266285 C3.85706239,16.1525585 3.67703907,16.3355635 3.45497687,16.3355635" id="Fill-24" fill="#FFFFFF"></path>
                <path d="M12.5992006,16.3355635 L10.8665806,16.3355635 C10.6445184,16.3355635 10.464495,16.1525585 10.464495,15.9266285 L10.464495,15.8155335 C10.464495,15.5896885 10.6445184,15.4065985 10.8665806,15.4065985 L12.5992006,15.4065985 C12.8212628,15.4065985 13.0012861,15.5896885 13.0012861,15.8155335 L13.0012861,15.9266285 C13.0012861,16.1525585 12.8212628,16.3355635 12.5992006,16.3355635" id="Fill-26" fill="#FFFFFF"></path>
                <path d="M14.3187302,1.15235714 L2.26617827,1.15235714 C1.75941392,1.15235714 1.34681319,1.57978571 1.34681319,2.1047619 L1.34681319,3.9982381 L0.842002442,3.9982381 C0.5001221,3.9982381 0.222319902,4.28602381 0.222319902,4.64019048 L0.222319902,7.43628571 C0.222319902,7.79004762 0.5001221,8.0782381 0.842002442,8.0782381 L1.34681319,8.0782381 L1.34681319,8.64166667 L0.842002442,8.64166667 C0.5001221,8.64166667 0.222319902,8.92945238 0.222319902,9.28361905 L0.222319902,12.0797143 C0.222319902,12.4334762 0.5001221,12.7216667 0.842002442,12.7216667 L1.34681319,12.7216667 L1.34681319,14.5904524 C1.34681319,15.1154286 1.75941392,15.5428571 2.26617827,15.5428571 L14.3187302,15.5428571 C14.8258852,15.5428571 15.2380952,15.1154286 15.2380952,14.5904524 L15.2380952,2.1047619 C15.2380952,1.57978571 14.8258852,1.15235714 14.3187302,1.15235714 L14.3187302,1.15235714 Z" id="Fill-13" stroke="#074975" stroke-width="1" fill="#FFFFFF" transform="translate(7.730208, 8.347607) rotate(180.000000) translate(-7.730208, -8.347607) "></path>
                <path d="M12.1336068,11.8535738 L9.98464469,9.62738333 C10.1553895,9.22343095 10.2448645,8.78264524 10.2448645,8.33902619 C10.2448645,7.89500238 10.1553895,7.45421667 9.98464469,7.05026429 L12.1336068,4.82407381 C12.5731673,4.36871667 12.5731673,3.62759762 12.1336068,3.17224048 C11.9206642,2.95164524 11.6373919,2.8298119 11.3361465,2.8298119 C11.0352918,2.8298119 10.7520195,2.95164524 10.5390769,3.17224048 L8.39011477,5.39843095 C8.00017582,5.22155 7.5742906,5.12885952 7.14645177,5.12885952 C6.7178315,5.12885952 6.292337,5.22155 5.90200733,5.39843095 L3.7534359,3.17224048 C3.54049328,2.95164524 3.257221,2.83021667 2.95597558,2.83021667 C2.65512088,2.83021667 2.3718486,2.95164524 2.15890598,3.17224048 C1.71934554,3.62800238 1.71934554,4.36871667 2.15890598,4.82407381 L4.30786813,7.05026429 C4.13712332,7.45462143 4.04764835,7.89540714 4.04764835,8.33902619 C4.04764835,8.78264524 4.13712332,9.22343095 4.30786813,9.62738333 L2.15890598,11.8535738 C1.71973626,12.308931 1.71973626,13.05005 2.15890598,13.5054071 C2.3718486,13.7260024 2.65512088,13.847431 2.9563663,13.847431 C3.257221,13.847431 3.54049328,13.7260024 3.7534359,13.5054071 L5.90239805,11.2792167 C6.292337,11.4560976 6.7178315,11.5487881 7.14606105,11.5487881 C7.5742906,11.5487881 7.9997851,11.4560976 8.39011477,11.2792167 L10.5390769,13.5054071 C10.7520195,13.7260024 11.0352918,13.847431 11.3361465,13.847431 C11.6373919,13.847431 11.9206642,13.7260024 12.1336068,13.5054071 C12.3465495,13.2848119 12.4637656,12.9913595 12.4637656,12.6796929 C12.4637656,12.3676214 12.3465495,12.074169 12.1336068,11.8535738 M11.7002979,13.0565262 C11.6030085,13.1569071 11.4736801,13.2127643 11.3361465,13.2127643 C11.1990037,13.2127643 11.0696752,13.1569071 10.9723858,13.0565262 L8.66987057,10.6712643 C8.61087179,10.6101452 8.532337,10.578169 8.45302076,10.578169 C8.40378999,10.578169 8.35455922,10.5903119 8.30923565,10.6150024 C7.9536801,10.8105024 7.55162882,10.9141214 7.14606105,10.9141214 C6.740884,10.9141214 6.33883272,10.8105024 5.98327717,10.6150024 C5.86410745,10.5498357 5.71797802,10.5725024 5.62264225,10.6712643 L3.32012698,13.0565262 C3.22283761,13.1569071 3.09389988,13.2127643 2.9563663,13.2127643 C2.81883272,13.2127643 2.68950427,13.1569071 2.5922149,13.0565262 C2.39177534,12.8484786 2.39177534,12.5105024 2.5922149,12.3024548 L4.89512088,9.91719286 C4.99045665,9.81843095 5.012337,9.66705 4.94904029,9.54359762 C4.76032234,9.17526429 4.66029792,8.75876429 4.66029792,8.33862143 C4.66029792,7.91888333 4.76032234,7.50238333 4.94904029,7.13364524 C5.01194628,7.01059762 4.99006593,6.85921667 4.89512088,6.76045476 L2.5922149,4.37519286 C2.39177534,4.16755 2.39177534,3.82916905 2.5922149,3.62112143 C2.68950427,3.52074048 2.81883272,3.4652881 2.9563663,3.4652881 C3.09350916,3.4652881 3.22283761,3.52074048 3.32012698,3.62112143 L5.62264225,6.0067881 C5.71797802,6.10514524 5.86410745,6.1278119 5.98327717,6.06264524 C6.33883272,5.86714524 6.740884,5.76352619 7.14645177,5.76352619 C7.55162882,5.76352619 7.9536801,5.86714524 8.30923565,6.06264524 C8.42840537,6.1278119 8.5745348,6.10514524 8.66987057,6.0067881 L10.9723858,3.62112143 C11.0696752,3.52033571 11.1990037,3.46488333 11.3361465,3.46488333 C11.4736801,3.46488333 11.6030085,3.52033571 11.7002979,3.62112143 C11.9007375,3.82916905 11.9007375,4.16714524 11.7002979,4.37519286 L9.39778266,6.76045476 C9.30244689,6.85921667 9.28056654,7.01059762 9.34386325,7.13405 C9.5325812,7.50238333 9.6322149,7.91888333 9.6322149,8.33902619 C9.6322149,8.75876429 9.5325812,9.17526429 9.34386325,9.54400238 C9.28056654,9.66705 9.30244689,9.81843095 9.39778266,9.91719286 L11.7002979,12.3024548 C11.7975873,12.4032405 11.851116,12.5372167 11.851116,12.6792881 C11.851116,12.8217643 11.7975873,12.9557405 11.7002979,13.0565262" id="Fill-1" fill="#074975" transform="translate(7.146501, 8.338621) rotate(180.000000) translate(-7.146501, -8.338621) "></path>
                <path d="M7.14682295,7.73564762 C6.82565079,7.73564762 6.56464957,8.00602857 6.56464957,8.33874286 C6.56464957,8.67145714 6.82565079,8.9418381 7.14682295,8.9418381 C7.46799512,8.9418381 7.72899634,8.67145714 7.72899634,8.33874286 C7.72899634,8.00602857 7.46799512,7.73564762 7.14682295,7.73564762" id="Fill-5" fill="#FFFFFF" transform="translate(7.146823, 8.338743) rotate(180.000000) translate(-7.146823, -8.338743) "></path>
                <path d="M7.14682295,6.65602619 C6.25129182,6.65602619 5.52259829,7.41050238 5.52259829,8.33862143 C5.52259829,9.26633571 6.25129182,10.0212167 7.14682295,10.0212167 C8.04235409,10.0212167 8.77104762,9.26633571 8.77104762,8.33862143 C8.77104762,7.41090714 8.04235409,6.65602619 7.14682295,6.65602619 M7.14682295,9.38614524 C6.58926496,9.38614524 6.13563858,8.91621667 6.13563858,8.33862143 C6.13563858,7.76062143 6.58926496,7.29069286 7.14682295,7.29069286 C7.70438095,7.29069286 8.15800733,7.76062143 8.15800733,8.33862143 C8.15800733,8.91621667 7.70438095,9.38614524 7.14682295,9.38614524" id="Fill-9" fill="#074975" transform="translate(7.146823, 8.338621) rotate(180.000000) translate(-7.146823, -8.338621) "></path>
            </g>
        </g>
    </g>
</svg>