<?xml version="1.0" encoding="UTF-8"?>
<svg width="12px" height="11px" viewBox="0 0 12 11" version="1.1" xmlns="http://www.w3.org/2000/svg" xmlns:xlink="http://www.w3.org/1999/xlink">
    <!-- Generator: Sketch 63.1 (92452) - https://sketch.com -->
    <title>Group 6</title>
    <desc>Created with Sketch.</desc>
    <defs>
        <polygon id="path-1" points="0 0 14 0 14 12 0 12"></polygon>
    </defs>
    <g id="Symbols" stroke="none" stroke-width="1" fill="none" fill-rule="evenodd">
        <g id="Sidemenu&gt;Portfolio" transform="translate(-46.000000, -933.000000)">
            <g id="Group-6" transform="translate(45.000000, 932.000000)">
                <mask id="mask-2" fill="white">
                    <use xlink:href="#path-1"></use>
                </mask>
                <g id="Clip-5"></g>
                <path d="M7.91447246,2.83354009 C7.91617378,2.32084062 7.50516378,1.90636888 6.99647845,1.90802683 C6.49956878,1.90969475 6.09362174,2.31246861 6.08542998,2.81197931 C6.07695379,3.32548157 6.48199064,3.74660504 6.98925378,3.75170853 C7.49850798,3.75681201 7.91270366,3.34572348 7.91447246,2.83354009 M9.89601893,3.75262601 C10.4163661,3.75509174 10.7022812,3.96169684 10.8679936,4.46195298 C11.5541101,6.53305013 12.2396577,8.60426196 12.9224179,10.676506 C13.1793773,11.4563069 12.7825891,11.9993979 11.9607967,11.9995699 C8.65303366,12.0001434 5.34538442,12.0001434 2.03762141,11.9995699 C1.21622716,11.9993979 0.820576701,11.4560775 1.0778775,10.6751297 C1.76063765,8.60288574 2.44612838,6.53161657 3.13224488,4.46057676 C3.29755907,3.96146747 3.58432744,3.75497705 4.10535728,3.75262601 C4.5305322,3.7507337 4.955764,3.75222461 5.38588811,3.75222461 C5.07016416,2.52056462 5.23297532,1.84696203 5.9609039,1.33179683 C6.57750424,0.89542025 7.39434752,0.888940545 8.01720545,1.3155689 C8.75537373,1.8211579 8.92620598,2.50714647 8.61480546,3.75222461 C9.04481579,3.75222461 9.4704458,3.75067636 9.89601893,3.75262601 Z" id="Fill-4" fill="#FFFFFF" mask="url(#mask-2)"></path>
            </g>
        </g>
    </g>
</svg>