<?xml version="1.0" encoding="UTF-8"?>
<svg width="21px" height="19px" viewBox="0 0 21 19" version="1.1" xmlns="http://www.w3.org/2000/svg" xmlns:xlink="http://www.w3.org/1999/xlink">
    <!-- Generator: Sketch 63.1 (92452) - https://sketch.com -->
    <title>Mijn portolio</title>
    <desc>Created with Sketch.</desc>
    <defs>
        <polygon id="path-1" points="0.02725 0.0518052632 5.22508333 0.0518052632 5.22508333 3.37324737 0.02725 3.37324737"></polygon>
        <polygon id="path-3" points="0.0283760331 0.059585 5.67911157 0.059585 5.67911157 3.353845 0.0283760331 3.353845"></polygon>
        <polygon id="path-5" points="0.0386157025 0.059585 5.68926446 0.059585 5.68926446 3.353845 0.0386157025 3.353845"></polygon>
    </defs>
    <g id="Symbols" stroke="none" stroke-width="1" fill="none" fill-rule="evenodd">
        <g id="Sidemenu&gt;Mijn-edelmetalen" transform="translate(-13.000000, -70.000000)">
            <g id="Mijn-portolio_Actief" transform="translate(13.000000, 71.000000)">
                <g id="Group-3" stroke-width="1" fill-rule="evenodd" transform="translate(5.250000, 6.800000)">
                    <mask id="mask-2" fill="white">
                        <use xlink:href="#path-1"></use>
                    </mask>
                    <g id="Clip-2"></g>
                    <path d="M5.15423333,2.44387526 L4.12081667,0.36227 C4.02623333,0.169812105 3.8499,0.0516173684 3.65948333,0.0516173684 L1.5939,0.0516173684 C1.40323333,0.0516173684 1.22715,0.169812105 1.13148333,0.36227 L0.0989,2.44387526 C0.00323333333,2.63463316 0.00323333333,2.87227526 0.0989,3.06321211 C0.193483333,3.25540158 0.369733333,3.37341737 0.560233333,3.37341737 L4.69173333,3.37341737 C4.88198333,3.37341737 5.05856667,3.25540158 5.15423333,3.06321211 C5.24881667,2.87227526 5.24881667,2.63606474 5.15423333,2.44387526" id="Fill-1" fill="#B88E2E" mask="url(#mask-2)"></path>
                </g>
                <g id="Group-6" stroke-width="1" fill-rule="evenodd" transform="translate(1.909091, 10.200000)">
                    <mask id="mask-4" fill="white">
                        <use xlink:href="#path-3"></use>
                    </mask>
                    <g id="Clip-5"></g>
                    <path d="M5.60203636,2.432088 L4.47853636,0.367523 C4.37579256,0.176698 4.18410248,0.059483 3.97705289,0.059483 L1.7315281,0.059483 C1.52421818,0.059483 1.33278843,0.176698 1.22882975,0.367523 L0.106284298,2.432088 C0.00223884298,2.621298 0.00223884298,2.856918 0.106284298,3.046383 C0.209114876,3.236953 0.400804959,3.353998 0.607854545,3.353998 L5.09933802,3.353998 C5.30612727,3.353998 5.49799091,3.236953 5.60203636,3.046383 C5.70486694,2.856918 5.70486694,2.622743 5.60203636,2.432088" id="Fill-4" fill="#B88E2E" mask="url(#mask-4)"></path>
                </g>
                <g id="Group-9" stroke-width="1" fill-rule="evenodd" transform="translate(7.636364, 10.200000)">
                    <mask id="mask-6" fill="white">
                        <use xlink:href="#path-5"></use>
                    </mask>
                    <g id="Clip-8"></g>
                    <path d="M5.61225,2.432088 L4.48875,0.367523 C4.3860062,0.176698 4.19431612,0.059483 3.98717975,0.059483 L1.74174174,0.059483 C1.53443182,0.059483 1.34300207,0.176698 1.23904339,0.367523 L0.116497934,2.432088 C0.0124524793,2.621298 0.0124524793,2.856918 0.116497934,3.046383 C0.219328512,3.236953 0.410931818,3.353998 0.617981405,3.353998 L5.10955165,3.353998 C5.31634091,3.353998 5.50820455,3.236953 5.61225,3.046383 C5.71508058,2.856918 5.71508058,2.622743 5.61225,2.432088" id="Fill-7" fill="#B88E2E" mask="url(#mask-6)"></path>
                </g>
                <path d="M12.634461,13.5688305 C12.634461,13.7679005 12.4754727,13.9292305 12.2792922,13.9292305 L2.17767078,13.9292305 C1.98149026,13.9292305 1.82250195,13.7679005 1.82250195,13.5688305 L1.82250195,3.3184255 C1.82250195,3.1193555 1.98149026,2.9580255 2.17767078,2.9580255 L12.2792922,2.9580255 C12.4754727,2.9580255 12.634461,3.1193555 12.634461,3.3184255 L12.634461,13.5688305 Z M13.9820922,1.1086805 L0.474870779,1.1086805 C0.212598701,1.1086805 4.23903337e-15,1.3244105 4.23903337e-15,1.5905455 L4.23903337e-15,15.2967105 C4.23903337e-15,15.5628455 0.212598701,15.7785755 0.474870779,15.7785755 L13.9820922,15.7785755 C14.2443643,15.7785755 14.4570468,15.5628455 14.4570468,15.2967105 L14.4570468,1.5905455 C14.4570468,1.3244105 14.2443643,1.1086805 13.9820922,1.1086805 L13.9820922,1.1086805 Z" id="Fill-10" fill="#FFFFFF" fill-rule="evenodd"></path>
                <path d="M19.8920686,12.9246495 L19.6707887,12.9246495 C19.3364674,12.9246495 19.0655195,12.7280445 19.0655195,12.4854545 L19.0655195,3.7941195 C19.0655195,3.5515295 19.3364674,3.3549245 19.6707887,3.3549245 L19.8920686,3.3549245 C20.2263899,3.3549245 20.4973377,3.5515295 20.4973377,3.7941195 L20.4973377,12.4854545 C20.4973377,12.7280445 20.2263899,12.9246495 19.8920686,12.9246495" id="Fill-12" fill="#FFFFFF" fill-rule="evenodd"></path>
                <path d="M19.8393941,9.288987 C19.6755134,9.288987 19.5427923,9.192682 19.5427923,9.073767 L19.5427923,7.205807 C19.5427923,7.086892 19.6755134,6.990502 19.8393941,6.990502 L20.6780087,6.990502 C20.8417722,6.990502 20.9746105,7.086892 20.9746105,7.205807 L20.9746105,9.073767 C20.9746105,9.192682 20.8417722,9.288987 20.6780087,9.288987 L19.8393941,9.288987 Z" id="Fill-14" fill="#FFFFFF" fill-rule="evenodd"></path>
                <path d="M18.9468247,0 L17.3745325,0 C17.1283436,0 16.9288124,0.202555 16.9288124,0.45237 L16.9288124,16.41299 C16.9288124,16.66289 17.1283436,16.865445 17.3745325,16.865445 L18.9468247,16.865445 C19.1930137,16.865445 19.3926286,16.66289 19.3926286,16.41299 L19.3926286,0.45237 C19.3926286,0.202555 19.1930137,0 18.9468247,0" id="Fill-16" fill="#FFFFFF" fill-rule="evenodd"></path>
                <path d="M18.9468247,0 L17.3745325,0 C17.1283436,0 16.9288124,0.202555 16.9288124,0.45237 L16.9288124,16.41299 C16.9288124,16.66289 17.1283436,16.865445 17.3745325,16.865445 L18.9468247,16.865445 C19.1930137,16.865445 19.3926286,16.66289 19.3926286,16.41299 L19.3926286,0.45237 C19.3926286,0.202555 19.1930137,0 18.9468247,0 Z" id="Stroke-18" stroke="#074975" stroke-width="0.5"></path>
                <path d="M16.9283768,0.3032715 C16.9283768,0.2777715 16.900734,0.2606865 16.8776145,0.2733515 L12.3770223,2.7433665 C12.2364625,2.8204615 12.1495132,2.9656415 12.1495132,3.1231465 L12.1495132,13.6912815 C12.1495132,13.8487865 12.2364625,13.9939665 12.3770223,14.0711465 L16.8776145,16.5410765 C16.900734,16.5541665 16.9283768,16.5370815 16.9283768,16.5112415 L16.9283768,0.3032715 Z" id="Fill-20" fill="#FFFFFF" fill-rule="evenodd"></path>
                <path d="M16.9283768,0.3032715 C16.9283768,0.2777715 16.900734,0.2606865 16.8776145,0.2733515 L12.3770223,2.7433665 C12.2364625,2.8204615 12.1495132,2.9656415 12.1495132,3.1231465 L12.1495132,13.6912815 C12.1495132,13.8487865 12.2364625,13.9939665 12.3770223,14.0711465 L16.8776145,16.5410765 C16.900734,16.5541665 16.9283768,16.5370815 16.9283768,16.5112415 L16.9283768,0.3032715 Z" id="Stroke-22" stroke="#074975" stroke-width="0.5"></path>
                <path d="M3.46282909,16.3355635 L1.7262713,16.3355635 C1.50370442,16.3355635 1.32327195,16.1525585 1.32327195,15.9266285 L1.32327195,15.8155335 C1.32327195,15.5896885 1.50370442,15.4065985 1.7262713,15.4065985 L3.46282909,15.4065985 C3.68539597,15.4065985 3.86582844,15.5896885 3.86582844,15.8155335 L3.86582844,15.9266285 C3.86582844,16.1525585 3.68539597,16.3355635 3.46282909,16.3355635" id="Fill-24" fill="#FFFFFF" fill-rule="evenodd"></path>
                <path d="M12.6278351,16.3355635 L10.8912773,16.3355635 C10.6687105,16.3355635 10.488278,16.1525585 10.488278,15.9266285 L10.488278,15.8155335 C10.488278,15.5896885 10.6687105,15.4065985 10.8912773,15.4065985 L12.6278351,15.4065985 C12.850402,15.4065985 13.0308345,15.5896885 13.0308345,15.8155335 L13.0308345,15.9266285 C13.0308345,16.1525585 12.850402,16.3355635 12.6278351,16.3355635" id="Fill-26" fill="#FFFFFF" fill-rule="evenodd"></path>
            </g>
        </g>
    </g>
</svg>