<?xml version="1.0" encoding="UTF-8"?>
<svg width="20px" height="21px" viewBox="0 0 20 21" version="1.1" xmlns="http://www.w3.org/2000/svg" xmlns:xlink="http://www.w3.org/1999/xlink">
    <!-- Generator: Sketch 63.1 (92452) - https://sketch.com -->
    <title>Uitloggen</title>
    <desc>Created with Sketch.</desc>
    <g id="Symbols" stroke="none" stroke-width="1" fill="none" fill-rule="evenodd">
        <g id="Menubalk-Aunexum-Safe-Klantenportaal" transform="translate(-1409.000000, -36.000000)" fill="#074975">
            <g id="Uitloggen" transform="translate(1409.000000, 36.000000)">
                <g id="Group-5">
                    <path d="M20,4.22460938 C19.9796875,4.27304883 19.9565234,4.32033984 19.9394922,4.37000977 C19.7314844,4.97847656 19.1786719,5.33264648 18.571875,5.24516016 C17.9862891,5.16070898 17.5327344,4.62869531 17.5066016,3.98876953 C17.4987891,3.79771875 17.4939844,3.60523242 17.5064844,3.41479687 C17.5491016,2.76482227 17.2771875,2.62073438 16.7467578,2.62463086 C14.8263672,2.63874023 12.9057813,2.63012695 10.9852734,2.63012695 C8.38765625,2.63012695 5.79007812,2.63012695 3.1925,2.63012695 C2.66527344,2.63012695 2.50441406,2.79861914 2.50441406,3.35068945 C2.50445312,8.08102148 2.50445312,12.8113945 2.50449219,17.5417266 C2.50449219,17.6306074 2.50363281,17.7194883 2.50558594,17.8083281 C2.51355469,18.1739414 2.7065625,18.3783633 3.05480469,18.3793066 C3.90113281,18.3817676 4.74746094,18.38025 5.59378906,18.380209 C9.36320312,18.3800039 13.1326563,18.3798398 16.9020703,18.3792656 C17.3319922,18.3792656 17.501875,18.1984277 17.5040625,17.7454512 C17.5053906,17.472123 17.4879297,17.196293 17.5167969,16.926041 C17.5845312,16.2912832 18.0483203,15.826248 18.6491016,15.7600078 C19.2161719,15.697541 19.7619531,16.0841133 19.953125,16.6832695 C19.9674219,16.7281406 19.9843359,16.7720684 20,16.8164062 L20,18.7851562 C19.985625,18.8285098 19.9676953,18.8709199 19.9574219,18.9153398 C19.7267578,19.9121836 19.1512109,20.5759395 18.2216406,20.8974199 C18.1124219,20.9351953 18.0010156,20.965957 17.890625,21 L2.1484375,21 C2.11269531,20.986793 2.07785156,20.9694434 2.04109375,20.9609121 C1.04277344,20.7284355 0.396132812,20.0958105 0.0948828125,19.0725937 C0.0553515625,18.9383086 0.03125,18.7990605 0,18.6621094 L0,2.37890625 C0.0122265625,2.333625 0.028125,2.28908203 0.036171875,2.24298047 C0.228476562,1.14212109 0.838046875,0.430623047 1.85304687,0.100365234 C1.98753906,0.0566015625 2.12796875,0.0329765625 2.265625,0 L17.734375,0 C17.7777344,0.0125097656 17.8204687,0.028875 17.8645703,0.0369960937 C18.9114062,0.230425781 19.5889063,0.866619141 19.9149219,1.92305859 C19.9485938,2.03216016 19.971875,2.14483008 20,2.25585938 L20,4.22460938 Z" id="Fill-1"></path>
                    <path d="M20,10.7972934 C19.895191,11.1755326 19.6664843,11.4558623 19.4135878,11.7286473 C18.2109146,13.0257523 17.018842,14.3343481 15.8182411,15.6336646 C15.2082768,16.293838 14.21566,16.1696517 13.8110096,15.3691183 C13.7009801,15.1513587 13.6427175,14.8777933 13.636142,14.6275128 C13.6147419,13.8117597 13.6282515,12.9948359 13.628371,12.178389 L13.628371,11.8868287 L13.3645951,11.8868287 C10.9142567,11.8867853 8.46387848,11.8879561 6.0135401,11.8858314 C5.37540084,11.8853111 4.86311207,11.4484042 4.73694277,10.809738 C4.56004275,9.91398364 5.1588886,9.11596525 6.02143066,9.11319014 C7.58858399,9.10820361 9.15577717,9.11149905 10.7229305,9.11145569 C11.6194259,9.11145569 12.5158814,9.11162914 13.412337,9.11171586 L13.628371,9.11171586 L13.628371,8.85913723 C13.6283312,8.03544905 13.6274146,7.21176087 13.6286101,6.38807269 C13.6295665,5.76597044 13.9198436,5.2604663 14.4143587,5.05224611 C14.9527102,4.82555408 15.4320818,4.94952358 15.8386849,5.39067979 C17.103526,6.76305981 18.3707982,8.13296825 19.6239231,9.51796636 C19.7885887,9.69995306 19.8765007,9.96415247 20,10.1902374 L20,10.7972934 Z" id="Fill-3"></path>
                </g>
            </g>
        </g>
    </g>
</svg>