<?xml version="1.0" encoding="UTF-8"?>
<svg width="17px" height="17px" viewBox="0 0 17 17" version="1.1" xmlns="http://www.w3.org/2000/svg" xmlns:xlink="http://www.w3.org/1999/xlink">
    <!-- Generator: Sketch 63.1 (92452) - https://sketch.com -->
    <title>Group 3</title>
    <desc>Created with Sketch.</desc>
    <defs>
        <polygon id="path-1" points="0 0 17 0 17 17 0 17"></polygon>
    </defs>
    <g id="Symbols" stroke="none" stroke-width="1" fill="none" fill-rule="evenodd">
        <g id="Sidemenu&gt;Portfolio" transform="translate(-18.000000, -884.000000)">
            <g id="Group-3" transform="translate(18.000000, 884.000000)">
                <mask id="mask-2" fill="white">
                    <use xlink:href="#path-1"></use>
                </mask>
                <g id="Clip-2"></g>
                <path d="M8.50035185,12.0416667 C6.54735174,12.0416667 4.95853858,10.4529193 4.95853858,8.5 C4.95853858,6.54708073 6.54735174,4.95833333 8.50035185,4.95833333 C10.453352,4.95833333 12.0421651,6.54708073 12.0421651,8.5 C12.0421651,10.4529193 10.453352,12.0416667 8.50035185,12.0416667 M16.0678786,6.6541276 L14.7360683,6.48479167 C14.6262278,6.14691667 14.4909748,5.82108333 14.3329214,5.51154167 L15.155419,4.45249479 C15.4883494,4.0239974 15.4494338,3.41903646 15.0689545,3.05070312 L13.9533276,1.9351224 C13.5815257,1.55120573 12.9765397,1.513 12.5471392,1.84520833 L11.4896423,2.66767188 C11.1800435,2.509625 10.854241,2.3743776 10.5156436,2.26454167 L10.3463007,0.935044271 C10.2826808,0.401536458 9.82990428,0 9.29380657,0 L7.70689714,0 C7.17079942,0 6.71802287,0.401536458 6.65440305,0.932786458 L6.4850601,2.26454167 C6.14646275,2.3743776 5.8206602,2.50891667 5.51106145,2.66767188 L4.4526791,1.84520833 C4.02482806,1.513 3.41988635,1.55120573 3.05082941,1.93166927 L1.9352025,3.04654167 C1.55126994,3.41903646 1.51235427,4.0239974 1.84528472,4.45338021 L2.6677823,5.51154167 C2.50902052,5.82108333 2.37447589,6.14691667 2.26463541,6.48479167 L0.935082977,6.6541276 C0.40155308,6.71774479 0,7.1705026 0,7.70657813 L0,9.29342187 C0,9.8294974 0.40155308,10.2822552 0.932825071,10.3458724 L2.26463541,10.5152083 C2.37447589,10.8530833 2.50972888,11.1789167 2.6677823,11.4884583 L1.84528472,12.5475052 C1.51235427,12.9760026 1.55126994,13.5809635 1.93174923,13.9492969 L3.04737614,15.0648776 C3.41988635,15.4480859 4.02416397,15.4863359 4.45356455,15.1541276 L5.51176981,14.3316641 C5.82132429,14.4904193 6.14717112,14.6256224 6.4850601,14.73475 L6.65440305,16.0635833 C6.71802287,16.5984635 7.17079942,17 7.70689714,17 L9.29380657,17 C9.82990428,17 10.2826808,16.5984635 10.3463007,16.0672135 L10.5156436,14.7354583 C10.8535326,14.6256224 11.1793794,14.4904193 11.4889339,14.3323281 L12.5480246,15.1547917 C12.9765397,15.4877083 13.5815257,15.4487943 13.9498743,15.0683307 L15.0655012,13.95275 C15.4494338,13.5802552 15.4883494,12.9760026 15.155419,12.5466198 L14.3329214,11.4884583 C14.4916832,11.1789167 14.6269362,10.8530833 14.7360683,10.5152083 L16.0649124,10.3458724 C16.5982652,10.2822552 17,9.8294974 17,9.29342187 L17,7.70657813 C17.0007037,7.1705026 16.5991506,6.71774479 16.0678786,6.6541276" id="Fill-1" fill="#FFFFFF" mask="url(#mask-2)"></path>
            </g>
        </g>
    </g>
</svg>