<?xml version="1.0" encoding="UTF-8"?>
<svg width="17px" height="17px" viewBox="0 0 17 17" version="1.1" xmlns="http://www.w3.org/2000/svg" xmlns:xlink="http://www.w3.org/1999/xlink">
    <!-- Generator: Sketch 63.1 (92452) - https://sketch.com -->
    <title>Group</title>
    <desc>Created with Sketch.</desc>
    <g id="Symbols" stroke="none" stroke-width="1" fill="none" fill-rule="evenodd">
        <g id="Sidemenu&gt;Portfolio" transform="translate(-15.000000, -23.000000)" fill="#FFFFFF">
            <g id="Group" transform="translate(15.000000, 23.000000)">
                <path d="M6.72718905,0 L1.27267459,0 C0.57088312,0 0,0.588721963 0,1.31244287 L0,4.6874165 C0,5.41127804 0.57088312,6 1.27267459,6 L6.72718905,6 C7.42911688,6 8,5.41127804 8,4.6874165 L8,1.31244287 C8,0.588721963 7.42911688,0 6.72718905,0" id="Fill-1"></path>
                <path d="M6.72718905,7 L1.27267459,7 C0.57088312,7 0,7.56068946 0,8.2500837 L0,15.7500502 C0,16.4393105 0.57088312,17 1.27267459,17 L6.72718905,17 C7.42911688,17 8,16.4393105 8,15.7500502 L8,8.2500837 C8,7.56068946 7.42911688,7 6.72718905,7" id="Fill-3"></path>
                <path d="M15.7273254,11 L10.2728109,11 C9.57088312,11 9,11.588722 9,12.3125835 L9,15.6875571 C9,16.411278 9.57088312,17 10.2728109,17 L15.7273254,17 C16.4291169,17 17,16.411278 17,15.6875571 L17,12.3125835 C17,11.588722 16.4291169,11 15.7273254,11" id="Fill-5"></path>
                <path d="M15.7273254,0 L10.2728109,0 C9.57088312,0 9,0.560689461 9,1.24994978 L9,8.7499163 C9,9.43931054 9.57088312,10 10.2728109,10 L15.7273254,10 C16.4291169,10 17,9.43931054 17,8.7499163 L17,1.24994978 C17,0.560689461 16.4291169,0 15.7273254,0" id="Fill-7"></path>
            </g>
        </g>
    </g>
</svg>