<?xml version="1.0" encoding="UTF-8"?>
<svg width="9px" height="10px" viewBox="0 0 9 10" version="1.1" xmlns="http://www.w3.org/2000/svg" xmlns:xlink="http://www.w3.org/1999/xlink">
    <!-- Generator: Sketch 63.1 (92452) - https://sketch.com -->
    <title>€</title>
    <desc>Created with Sketch.</desc>
    <g id="Symbols" stroke="none" stroke-width="1" fill="none" fill-rule="evenodd">
        <g id="Sidemenu&gt;Portfolio" transform="translate(-47.000000, -910.000000)" fill="#FFFFFF" fill-rule="nonzero">
            <path d="M52.3418482,920 C53.4643125,920 54.3568745,919.59276 55.0195342,918.778281 C55.5740045,918.101702 55.9008264,917.263521 56,916.263736 L56,916.263736 L54.8978212,916.263736 C54.785124,916.888602 54.6138242,917.392803 54.3839219,917.776341 C53.9466566,918.504633 53.3110443,918.868778 52.4770849,918.868778 C51.5709992,918.868778 50.890308,918.524025 50.4350113,917.834518 C50.1600301,917.420814 49.9684448,916.931696 49.8602554,916.367162 L49.8602554,916.367162 L53.3966942,916.367162 L53.6806912,915.449257 L49.7588279,915.449257 C49.7543201,915.345831 49.7520661,915.238095 49.7520661,915.12605 C49.7520661,914.880414 49.7588279,914.647705 49.7723516,914.427925 L49.7723516,914.427925 L53.3966942,914.427925 L53.6806912,913.510019 L49.9075883,913.510019 C50.0293013,912.936867 50.2299023,912.469295 50.5093914,912.107304 C51.014275,911.447964 51.6791886,911.118293 52.5041322,911.118293 C53.1758077,911.118293 53.6987228,911.297134 54.0728775,911.654816 C54.4470323,912.012497 54.6949662,912.497307 54.8166792,913.109244 L54.8166792,913.109244 L55.918858,913.109244 C55.8557476,912.303383 55.5323065,911.58371 54.9485349,910.950226 C54.3647633,910.316742 53.5454545,910 52.4906086,910 C51.2509391,910 50.2794891,910.486964 49.5762585,911.460892 C49.1570248,912.038354 48.8707739,912.721396 48.7175056,913.510019 L48.7175056,913.510019 L47.283997,913.510019 L47,914.427925 L48.6093163,914.427925 C48.6003005,914.587373 48.5957926,914.746822 48.5957926,914.90627 C48.5957926,915.091575 48.6003005,915.272571 48.6093163,915.449257 L48.6093163,915.449257 L47.283997,915.449257 L47,916.367162 L48.703982,916.367162 C48.8797896,917.49192 49.2787378,918.368886 49.9008264,918.998061 C50.5589782,919.66602 51.3726521,920 52.3418482,920 Z" id="€"></path>
        </g>
    </g>
</svg>