<?xml version="1.0" encoding="UTF-8"?>
<svg width="17px" height="16px" viewBox="0 0 17 16" version="1.1" xmlns="http://www.w3.org/2000/svg" xmlns:xlink="http://www.w3.org/1999/xlink">
    <!-- Generator: Sketch 63.1 (92452) - https://sketch.com -->
    <title>Group 6</title>
    <desc>Created with Sketch.</desc>
    <defs>
        <polygon id="path-1" points="0 0.001758755 16.9981092 0.001758755 16.9981092 11 0 11"></polygon>
    </defs>
    <g id="Symbols" stroke="none" stroke-width="1" fill="none" fill-rule="evenodd">
        <g id="Sidemenu&gt;Portfolio" transform="translate(-17.000000, -170.000000)">
            <g id="Group-6" transform="translate(17.000000, 170.000000)">
                <g id="Group-3" transform="translate(0.000000, 5.000000)">
                    <mask id="mask-2" fill="white">
                        <use xlink:href="#path-1"></use>
                    </mask>
                    <g id="Clip-2"></g>
                    <path d="M2.20117041,11 C2.03403265,10.9953898 1.86691224,10.9899322 1.69977449,10.9863051 C1.37901224,10.979339 1.05823265,10.9736102 0.737470408,10.9666441 C0.705916327,10.9659661 0.673356122,10.9642203 0.643172449,10.9561356 C0.391104082,10.8886102 0.0285530612,10.5134407 0.0275469388,10.2223051 C0.0241816327,9.25927119 -1.66903739e-06,8.29627119 -1.66903739e-06,7.33325424 C-1.66903739e-06,5.13850847 0.00839591837,2.94376271 0.0183530612,0.749016949 C0.0187,0.670813559 0.063177551,0.588694915 0.101392857,0.515542373 C0.207538776,0.312338983 0.370253061,0.161152542 0.586760204,0.0763389831 C0.675732653,0.0414745763 0.776969388,0.0258474576 0.873487755,0.0219491525 C1.17376327,0.00986440678 1.47443776,0.00750847458 1.77497347,0.001758755 C1.78297041,0.00161016949 1.79103673,0.00589830508 1.8037,0.00940677966 L1.8037,0.775661017 C1.77811327,0.77720339 1.75304694,0.779915254 1.72796327,0.780067797 C1.58630816,0.780915254 1.44421939,0.788135593 1.30310204,0.779966102 C1.09240612,0.767762712 0.961540816,0.896576271 0.829131633,1.02267797 C0.810032653,1.04088136 0.813484694,1.08583051 0.813467347,1.11840678 C0.812790816,2.6550339 0.812877551,4.19166102 0.812877551,5.72827119 C0.812877551,7.11235593 0.813276531,8.49642373 0.811611224,9.88050847 C0.811541837,9.94484746 0.834231633,9.98537288 0.879541837,10.032322 C1.02159592,10.1795254 1.19071122,10.2367797 1.3942602,10.2224068 C1.50640816,10.2144746 1.62011735,10.2152712 1.73224796,10.2235593 C1.82238265,10.2302373 1.86769286,10.2000508 1.90842347,10.1195424 C2.65147959,8.65047458 3.39469184,7.18144068 4.1463,5.71652542 C4.37512347,5.27054237 4.62838878,4.83650847 4.87292857,4.39828814 C4.90441327,4.34186441 4.94916837,4.29210169 4.99052347,4.24142373 C5.07380612,4.13938983 5.17565,4.08355932 5.3170449,4.08150847 C6.06556531,4.07069492 6.8138949,4.04645763 7.56243265,4.03954237 C9.16672959,4.02471186 10.7710786,4.01764407 12.3754276,4.00742373 C12.4037898,4.00725424 12.432152,4.00742373 12.4792663,4.00742373 L12.4792663,1.77076271 C12.5468327,1.78132203 12.5948143,1.78642373 12.6416684,1.79654237 C12.9404,1.8609322 13.2378306,2.18494915 13.2511531,2.48159322 C13.2728194,2.96398305 13.282048,3.44688136 13.2967061,3.92957627 C13.2976429,3.95994915 13.3001755,3.99025424 13.3025,4.02966102 C13.3429704,4.02966102 13.3769357,4.02961017 13.410901,4.02967797 C14.2926286,4.0310678 15.1743561,4.03166102 16.0560837,4.03466102 C16.2149469,4.03520339 16.373949,4.04266102 16.5325347,4.05230508 C16.7786184,4.06727119 16.9054939,4.16754237 16.9784551,4.39610169 C16.9833469,4.41145763 16.9914827,4.42584746 16.9981092,4.44067797 L16.9981092,4.62711864 C16.9721408,4.67655932 16.9464847,4.72615254 16.920152,4.77538983 C15.9445082,6.59932203 14.9673031,8.42249153 13.9945908,10.2479322 C13.8420245,10.5342542 13.6354571,10.7650678 13.3510367,10.9271186 C13.2996378,10.9564068 13.2350898,10.9785593 13.1765439,10.9787458 C11.5238837,10.9840678 9.87120612,10.9857627 8.21854592,10.9891525 C8.01681837,10.9895763 7.81512551,10.9962373 7.61341531,11 L2.20117041,11 Z" id="Fill-1" fill="#FFFFFF" mask="url(#mask-2)"></path>
                </g>
                <path d="M8.25282633,0 C8.40612518,0.00414748455 8.55940754,0.0100037327 8.71272286,0.0120940649 C9.06423393,0.016921737 9.41577795,0.020123595 9.7673055,0.0234581726 C9.83201373,0.0240720003 9.88826671,0.0353697482 9.93654241,0.0881257517 C10.6081993,0.821965078 11.2818836,1.55391315 11.9526669,2.28853221 C11.9804885,2.31900792 11.9980089,2.37124964 11.9980748,2.4133549 C12.0002834,4.22421301 12,6.03507113 12,7.84592924 L12,7.92503007 L11.412223,7.92503007 C11.412223,7.88778566 11.4124208,7.85278089 11.41219,7.81777612 C11.4029272,6.35809382 11.394406,4.89837833 11.3833466,3.43869603 C11.3819786,3.25925926 11.3657438,3.0799718 11.3588544,2.90053503 C11.3556404,2.81639086 11.3136773,2.78715939 11.2333112,2.78559993 C10.8160865,2.77747086 10.3988948,2.76615653 9.98170302,2.75606984 C9.9267686,2.75474265 9.87161992,2.75034631 9.81696569,2.75371407 C9.66168901,2.76325329 9.54867211,2.68748704 9.45749383,2.57283398 C9.43820992,2.54859608 9.4340235,2.50705487 9.43374331,2.47339389 C9.42919428,1.93986147 9.42644179,1.40631247 9.42317836,0.872763469 C9.42306299,0.853419601 9.42261797,0.834009373 9.42098626,0.814748455 C9.40722381,0.651768902 9.38981884,0.630301522 9.22565838,0.628791838 C7.9898894,0.61741114 6.75410393,0.603359462 5.51830199,0.600273734 C4.95270656,0.598846999 4.3870452,0.619584422 3.82144977,0.631744847 C3.65920122,0.635228734 3.65574001,0.637534735 3.65460275,0.798042387 C3.64268628,2.49263821 3.62770417,4.18723404 3.62214974,5.88184646 C3.61664476,7.56828004 3.6212762,9.2547468 3.61941373,10.9411804 C3.61936429,10.99387 3.60647538,11.0514869 3.58298857,11.09837 C3.44594096,11.3719215 3.30424542,11.6430841 3.16322565,11.9146116 C3.14834243,11.943279 3.12773996,11.9689602 3.10715397,12 C3.04402801,11.9518892 3.02718344,11.8913525 3.02598025,11.8233503 C3.01691517,11.3092282 2.99967502,10.7951226 3,10.2810336 C3.00190009,7.21504707 3.00766878,4.14907718 3.01291005,1.0831073 C3.01315728,0.94217577 3.01961821,0.801194476 3.02504078,0.66032931 C3.03794616,0.325660487 3.30696495,0.0478122019 3.64003268,0.0345734312 C3.97201261,0.0213844303 4.30435514,0.0175687446 4.63651636,0.00904151632 C4.66628281,0.00827837916 4.69596685,0.00311890838 4.72568385,0 L8.25282633,0 Z" id="Fill-4" fill="#FFFFFF"></path>
            </g>
        </g>
    </g>
</svg>