<?xml version="1.0" encoding="UTF-8"?>
<svg width="25px" height="25px" viewBox="0 0 25 25" version="1.1" xmlns="http://www.w3.org/2000/svg" xmlns:xlink="http://www.w3.org/1999/xlink">
    <!-- Generator: Sketch 63.1 (92452) - https://sketch.com -->
    <title>FAQ icoon</title>
    <desc>Created with Sketch.</desc>
    <defs>
        <polygon id="path-1" points="0 0.0383518493 24.9748245 0.0383518493 24.9748245 25 0 25"></polygon>
    </defs>
    <g id="FAQ-icoon" stroke="none" stroke-width="1" fill="none" fill-rule="evenodd">
        <g id="Group-8">
            <g id="Group-3">
                <mask id="mask-2" fill="white">
                    <use xlink:href="#path-1"></use>
                </mask>
                <g id="Clip-2"></g>
                <path d="M3.95687822,23.2142201 C4.04349914,23.2142201 4.07167238,23.2156956 4.09963122,23.2140093 C5.35524871,23.1390936 6.54401372,22.8226518 7.68247856,22.2955438 C8.1424271,22.0826433 8.61927101,22.039726 9.13466552,22.2109317 C10.837753,22.776699 12.5847513,22.8977361 14.3567925,22.5909064 C20.0712436,21.6015304 23.9095369,16.2935202 23.0053774,10.6361003 C22.0885678,4.89900084 16.4451286,0.947314503 10.6227015,1.98951518 C3.43170669,3.27669899 -0.549382504,11.1154848 3.43329331,17.6639671 C3.89581475,18.4244646 4.51198113,19.0942791 5.04945969,19.8115219 C5.13590909,19.9267833 5.20546312,20.0643044 5.24478559,20.2020784 C5.45872213,20.9509401 5.17488851,21.5753078 4.72591767,22.1595405 C4.46927101,22.4935202 4.22909091,22.8396838 3.95687822,23.2142201 M3.49521441,20.8334865 C3.39469983,20.7222302 3.29491424,20.6135877 3.1971012,20.5033853 C0.903662093,17.919785 -0.182401372,14.9172555 0.024974271,11.4909064 C0.364939966,5.87509696 4.7293482,1.13605818 10.3811921,0.209498314 C17.1691852,-0.903317875 23.5631389,3.52446459 24.778319,10.1794815 C25.9899828,16.8153583 21.4705146,23.2219351 14.743928,24.3940261 C12.7175129,24.7471037 10.7182419,24.6277108 8.75228988,24.0131661 C8.64830189,23.980704 8.51163808,23.9866062 8.4085506,24.0238322 C7.61875643,24.3088659 6.84748714,24.6449536 6.01386792,24.8026265 C4.97536021,24.9991273 3.92994854,25.0385877 2.87763293,24.9664123 C2.78509434,24.9600464 2.69221269,24.9580649 2.59945969,24.9549874 C1.93436535,24.9326012 1.43479417,24.1835287 1.62235849,23.6357631 C1.69843053,23.4135877 1.77488851,23.1812943 1.90533448,22.9891779 C2.3216295,22.3761088 2.76150943,21.7783853 3.19680103,21.1779637 C3.28282161,21.0593297 3.3891681,20.954903 3.49521441,20.8334865" id="Fill-1" fill="#074975" mask="url(#mask-2)"></path>
            </g>
            <path d="M10.0782704,9.28883434 C9.59503355,9.22986482 9.11516875,9.17193595 8.63547046,9.11244611 C8.4635817,9.09106967 8.29252553,9.05213244 8.12034536,9.04632221 C7.93734149,9.04012174 7.87443911,8.96428521 7.90029111,8.77718708 C7.98767171,8.14452225 8.19132389,7.55977014 8.55283564,7.04070834 C9.11525201,6.23321624 9.8473924,5.65002509 10.7738183,5.39615266 C12.4557804,4.93523653 14.0960297,5.01415161 15.5775035,6.06654064 C16.5937245,6.78844023 17.1202978,7.82981583 17.1049364,9.12389314 C17.0954449,9.92123901 16.7454229,10.5928411 16.2190578,11.1448998 C15.6824518,11.7077551 15.1025926,12.225863 14.5413419,12.7632227 C14.5005032,12.80229 14.4584573,12.8403167 14.4145797,12.8755249 C13.7706525,13.3918117 13.4911511,14.075728 13.5254955,14.9166072 C13.5381093,15.2258937 13.5049305,15.5370012 13.5009341,15.8473716 C13.4992689,15.9770179 13.4522274,16.025641 13.3275883,16.0248439 C12.7240418,16.0210716 12.1204121,16.0205079 11.5168656,16.025641 C11.3899369,16.0267083 11.3476828,15.9750233 11.3413551,15.8492361 C11.294272,14.9135287 11.3752833,13.988878 11.5798097,13.0783627 C11.6756411,12.651701 11.9240451,12.3053851 12.2244446,12.0088899 C12.5051116,11.7318199 12.8097989,11.4812428 13.0982922,11.2124979 C13.4948978,10.8429412 13.9016193,10.4832272 14.2765774,10.0908631 C15.0634191,9.26741453 14.8925711,8.02046947 13.9231002,7.39053631 C12.5399139,6.49177154 10.7672408,7.18232189 10.2099033,8.83836795 C10.1621124,8.98024167 10.1254784,9.12623457 10.0782704,9.28883434" id="Fill-4" fill="#074975"></path>
            <path d="M12.683813,17.3081039 C13.5287452,17.3067828 14.181009,17.8579605 14.1842105,18.575973 C14.1874443,19.2986565 13.5243804,19.8677161 12.6742999,19.8717949 C11.8460436,19.8757842 11.1837631,19.3077154 11.1842105,18.5916374 C11.1847703,17.7426482 11.9704975,17.2921093 12.683813,17.3081039" id="Fill-6" fill="#074975"></path>
        </g>
    </g>
</svg>